<svg width="182" height="49" viewBox="0 0 182 49" fill="none" xmlns="http://www.w3.org/2000/svg">
<path d="M179.154 30.04C176.888 30.04 175.128 29.4 173.874 28.12C172.621 26.84 171.994 25.0399 171.994 22.7199V12.24H168.194V8.15995H168.794C169.808 8.15995 170.594 7.86662 171.154 7.27995C171.714 6.69328 171.994 5.89328 171.994 4.87995V3.19995H176.514V8.15995H181.434V12.24H176.514V22.52C176.514 23.2666 176.634 23.9066 176.874 24.44C177.114 24.9466 177.501 25.3466 178.034 25.64C178.568 25.9066 179.261 26.04 180.114 26.04C180.328 26.04 180.568 26.0266 180.834 26C181.101 25.9733 181.354 25.9466 181.594 25.92V29.8C181.221 29.8533 180.808 29.9066 180.354 29.96C179.901 30.0133 179.501 30.04 179.154 30.04Z" fill="#00D33B"/>
<path d="M157.326 30.2799C155.112 30.2799 153.166 29.7333 151.486 28.6399C149.832 27.5466 148.672 26.0799 148.006 24.2399L151.486 22.5999C152.072 23.8266 152.872 24.7999 153.886 25.5199C154.926 26.2399 156.072 26.5999 157.326 26.5999C158.392 26.5999 159.259 26.3599 159.926 25.8799C160.592 25.3999 160.926 24.7466 160.926 23.9199C160.926 23.3866 160.779 22.9599 160.486 22.6399C160.192 22.2933 159.819 22.0133 159.366 21.7999C158.939 21.5866 158.499 21.4266 158.046 21.3199L154.646 20.3599C152.779 19.8266 151.379 19.0266 150.446 17.9599C149.539 16.8666 149.086 15.5999 149.086 14.1599C149.086 12.8533 149.419 11.7199 150.086 10.7599C150.752 9.77326 151.672 9.01327 152.846 8.47993C154.019 7.9466 155.339 7.67993 156.806 7.67993C158.779 7.67993 160.539 8.17326 162.086 9.15993C163.632 10.1199 164.726 11.4666 165.366 13.1999L161.886 14.8399C161.459 13.7999 160.779 12.9733 159.846 12.3599C158.939 11.7466 157.912 11.4399 156.766 11.4399C155.779 11.4399 154.992 11.6799 154.406 12.1599C153.819 12.6133 153.526 13.2133 153.526 13.9599C153.526 14.4666 153.659 14.8933 153.926 15.2399C154.192 15.5599 154.539 15.8266 154.966 16.0399C155.392 16.2266 155.832 16.3866 156.286 16.5199L159.806 17.5599C161.592 18.0666 162.966 18.8666 163.926 19.9599C164.886 21.0266 165.366 22.3066 165.366 23.7999C165.366 25.0799 165.019 26.2133 164.326 27.1999C163.659 28.1599 162.726 28.9199 161.526 29.4799C160.326 30.0133 158.926 30.2799 157.326 30.2799Z" fill="#00D33B"/>
<path d="M134.954 30.2799C132.794 30.2799 130.874 29.7866 129.194 28.7999C127.541 27.7866 126.248 26.4266 125.314 24.7199C124.381 22.9866 123.914 21.0533 123.914 18.9199C123.914 16.7333 124.381 14.7999 125.314 13.1199C126.274 11.4399 127.554 10.1199 129.154 9.15993C130.754 8.17326 132.568 7.67993 134.594 7.67993C136.221 7.67993 137.674 7.95993 138.954 8.51993C140.234 9.07993 141.314 9.85326 142.194 10.8399C143.074 11.7999 143.741 12.9066 144.194 14.1599C144.674 15.4133 144.914 16.7466 144.914 18.1599C144.914 18.5066 144.901 18.8666 144.874 19.2399C144.848 19.6133 144.794 19.9599 144.714 20.2799H127.474V16.6799H142.154L139.994 18.3199C140.261 17.0133 140.168 15.8533 139.714 14.8399C139.288 13.7999 138.621 12.9866 137.714 12.3999C136.834 11.7866 135.794 11.4799 134.594 11.4799C133.394 11.4799 132.328 11.7866 131.394 12.3999C130.461 12.9866 129.741 13.8399 129.234 14.9599C128.728 16.0533 128.528 17.3866 128.634 18.9599C128.501 20.4266 128.701 21.7066 129.234 22.7999C129.794 23.8933 130.568 24.7466 131.554 25.3599C132.568 25.9733 133.714 26.2799 134.994 26.2799C136.301 26.2799 137.408 25.9866 138.314 25.3999C139.248 24.8133 139.981 24.0533 140.514 23.1199L144.194 24.9199C143.768 25.9333 143.101 26.8533 142.194 27.6799C141.314 28.4799 140.248 29.1199 138.994 29.5999C137.768 30.0533 136.421 30.2799 134.954 30.2799Z" fill="#00D33B"/>
<path d="M95.6641 29.8V0H99.4641L116.184 23.08L114.384 23.36V0H119.064V29.8H115.264L98.6641 6.56L100.384 6.24V29.8H95.6641Z" fill="#00D33B"/>
<path d="M80.8528 30.2799C78.6928 30.2799 76.7728 29.7866 75.0928 28.7999C73.4395 27.7866 72.1461 26.4266 71.2128 24.7199C70.2795 22.9866 69.8128 21.0533 69.8128 18.9199C69.8128 16.7333 70.2795 14.7999 71.2128 13.1199C72.1728 11.4399 73.4528 10.1199 75.0528 9.15993C76.6528 8.17326 78.4661 7.67993 80.4928 7.67993C82.1195 7.67993 83.5728 7.95993 84.8528 8.51993C86.1328 9.07993 87.2128 9.85326 88.0928 10.8399C88.9728 11.7999 89.6395 12.9066 90.0928 14.1599C90.5728 15.4133 90.8128 16.7466 90.8128 18.1599C90.8128 18.5066 90.7995 18.8666 90.7728 19.2399C90.7461 19.6133 90.6928 19.9599 90.6128 20.2799H73.3728V16.6799H88.0528L85.8928 18.3199C86.1595 17.0133 86.0661 15.8533 85.6128 14.8399C85.1861 13.7999 84.5195 12.9866 83.6128 12.3999C82.7328 11.7866 81.6928 11.4799 80.4928 11.4799C79.2928 11.4799 78.2261 11.7866 77.2928 12.3999C76.3595 12.9866 75.6395 13.8399 75.1328 14.9599C74.6261 16.0533 74.4261 17.3866 74.5328 18.9599C74.3995 20.4266 74.5995 21.7066 75.1328 22.7999C75.6928 23.8933 76.4661 24.7466 77.4528 25.3599C78.4661 25.9733 79.6128 26.2799 80.8928 26.2799C82.1995 26.2799 83.3061 25.9866 84.2128 25.3999C85.1461 24.8133 85.8795 24.0533 86.4128 23.1199L90.0928 24.9199C89.6661 25.9333 88.9995 26.8533 88.0928 27.6799C87.2128 28.4799 86.1461 29.1199 84.8928 29.5999C83.6661 30.0533 82.3195 30.2799 80.8528 30.2799Z" fill="#00D33B"/>
<path d="M64.2325 30.04C61.9659 30.04 60.2059 29.4 58.9525 28.12C57.6992 26.84 57.0725 25.0399 57.0725 22.7199V12.24H53.2725V8.15995H53.8725C54.8859 8.15995 55.6725 7.86662 56.2325 7.27995C56.7925 6.69328 57.0725 5.89328 57.0725 4.87995V3.19995H61.5925V8.15995H66.5125V12.24H61.5925V22.52C61.5925 23.2666 61.7125 23.9066 61.9525 24.44C62.1925 24.9466 62.5792 25.3466 63.1125 25.64C63.6459 25.9066 64.3392 26.04 65.1925 26.04C65.4059 26.04 65.6459 26.0266 65.9125 26C66.1792 25.9733 66.4325 25.9466 66.6725 25.92V29.8C66.2992 29.8533 65.8859 29.9066 65.4325 29.96C64.9792 30.0133 64.5792 30.04 64.2325 30.04Z" fill="#00D33B"/>
<path d="M39.5703 30.2799C37.4903 30.2799 35.5836 29.7866 33.8503 28.7999C32.1436 27.8133 30.7836 26.4666 29.7703 24.7599C28.757 23.0533 28.2503 21.1199 28.2503 18.9599C28.2503 16.7733 28.757 14.8399 29.7703 13.1599C30.7836 11.4533 32.1436 10.1199 33.8503 9.15993C35.557 8.17326 37.4636 7.67993 39.5703 7.67993C41.7036 7.67993 43.6103 8.17326 45.2903 9.15993C46.997 10.1199 48.3436 11.4533 49.3303 13.1599C50.3436 14.8399 50.8503 16.7733 50.8503 18.9599C50.8503 21.1466 50.3436 23.0933 49.3303 24.7999C48.317 26.5066 46.957 27.8533 45.2503 28.8399C43.5436 29.7999 41.6503 30.2799 39.5703 30.2799ZM39.5703 26.0799C40.8503 26.0799 41.9836 25.7733 42.9703 25.1599C43.957 24.5466 44.7303 23.7066 45.2903 22.6399C45.877 21.5466 46.1703 20.3199 46.1703 18.9599C46.1703 17.5999 45.877 16.3866 45.2903 15.3199C44.7303 14.2533 43.957 13.4133 42.9703 12.7999C41.9836 12.1866 40.8503 11.8799 39.5703 11.8799C38.317 11.8799 37.1836 12.1866 36.1703 12.7999C35.1836 13.4133 34.397 14.2533 33.8103 15.3199C33.2503 16.3866 32.9703 17.5999 32.9703 18.9599C32.9703 20.3199 33.2503 21.5466 33.8103 22.6399C34.397 23.7066 35.1836 24.5466 36.1703 25.1599C37.1836 25.7733 38.317 26.0799 39.5703 26.0799Z" fill="#00D33B"/>
<path d="M0 29.8V0H3.8L20.52 23.08L18.72 23.36V0H23.4V29.8H19.6L3 6.56L4.72 6.24V29.8H0Z" fill="#00D33B"/>
<path d="M61.99 45C62.0433 44.76 62.1167 44.5 62.21 44.22C62.3033 43.9333 62.4033 43.6367 62.51 43.33C62.6633 42.93 62.74 42.5667 62.74 42.24C62.74 42.2067 62.74 42.1733 62.74 42.14C62.74 42.1 62.7367 42.0633 62.73 42.03C62.69 41.7433 62.6167 41.4233 62.51 41.07C62.4033 40.7167 62.2867 40.37 62.16 40.03C62.0333 39.6967 61.89 39.41 61.73 39.17C61.57 38.93 61.3767 38.81 61.15 38.81C61.01 38.81 60.8533 38.87 60.68 38.99C60.5133 39.11 60.3233 39.31 60.11 39.59C60.1033 39.5967 60.0967 39.6 60.09 39.6C60.07 39.6 60.0567 39.5767 60.05 39.53C60.0433 39.4833 60.0433 39.45 60.05 39.43C60.1967 39.1367 60.35 38.8833 60.51 38.67C60.6767 38.4567 60.8733 38.2967 61.1 38.19C61.3333 38.0767 61.6233 38.03 61.97 38.05C62.3033 38.0633 62.55 38.19 62.71 38.43C62.87 38.67 63.0133 38.9967 63.14 39.41C63.24 39.7567 63.3433 40.13 63.45 40.53C63.5567 40.9233 63.6533 41.29 63.74 41.63C63.9933 41.2833 64.2633 40.9033 64.55 40.49C64.8367 40.0767 65.12 39.67 65.4 39.27C65.6867 38.87 65.9433 38.52 66.17 38.22C66.2433 38.1267 66.3567 38.07 66.51 38.05C66.6633 38.0233 66.8233 38.01 66.99 38.01C67.0967 38.01 67.2 38.0133 67.3 38.02C67.4 38.02 67.4867 38.02 67.56 38.02C67.2667 38.2267 66.95 38.4867 66.61 38.8C66.27 39.1133 65.9333 39.4633 65.6 39.85C65.3067 40.19 65.0067 40.5933 64.7 41.06C64.3933 41.5267 64.1167 42.03 63.87 42.57C63.6233 43.1033 63.44 43.6467 63.32 44.2C63.2933 44.3133 63.2733 44.42 63.26 44.52C63.2467 44.6133 63.24 44.6967 63.24 44.77C63.24 44.8767 63.2533 44.9533 63.28 45H61.99ZM66.314 45.08C66.0073 45.08 65.7407 44.9833 65.514 44.79C65.294 44.5967 65.184 44.2867 65.184 43.86C65.184 43.5467 65.2407 43.22 65.354 42.88C65.4673 42.54 65.6273 42.2233 65.834 41.93C66.0473 41.6367 66.304 41.3967 66.604 41.21C66.904 41.0233 67.2407 40.93 67.614 40.93C67.9207 40.93 68.1573 40.99 68.324 41.11C68.4973 41.2233 68.6207 41.3767 68.694 41.57C68.7673 41.7633 68.804 41.97 68.804 42.19C68.804 42.3567 68.784 42.5267 68.744 42.7C68.7107 42.8667 68.6607 43.0333 68.594 43.2C68.7073 43.3333 68.8507 43.4 69.024 43.4C69.2107 43.4 69.384 43.33 69.544 43.19C69.6373 43.11 69.7207 43.01 69.794 42.89C69.874 42.7633 69.944 42.6467 70.004 42.54C70.024 42.5 70.0473 42.48 70.074 42.48C70.1073 42.48 70.124 42.5267 70.124 42.62C70.124 42.68 70.114 42.75 70.094 42.83C70.0807 42.91 70.0473 42.99 69.994 43.07C69.894 43.2433 69.7907 43.3767 69.684 43.47C69.5773 43.5567 69.4573 43.6267 69.324 43.68C69.224 43.72 69.1173 43.74 69.004 43.74C68.7973 43.74 68.6107 43.6767 68.444 43.55C68.3907 43.6633 68.324 43.78 68.244 43.9C68.0507 44.2267 67.8007 44.5067 67.494 44.74C67.1873 44.9667 66.794 45.08 66.314 45.08ZM66.694 44.7C66.8473 44.7 66.994 44.65 67.134 44.55C67.2807 44.4433 67.414 44.3133 67.534 44.16C67.654 44.0067 67.7573 43.8467 67.844 43.68C67.9373 43.5133 68.014 43.3667 68.074 43.24C67.8473 43.0467 67.734 42.8033 67.734 42.51C67.734 42.3167 67.7873 42.1667 67.894 42.06C68.0007 41.9533 68.1473 41.9067 68.334 41.92C68.3273 41.7667 68.2873 41.64 68.214 41.54C68.1407 41.44 68.0207 41.39 67.854 41.39C67.7007 41.39 67.554 41.4367 67.414 41.53C67.2807 41.6233 67.154 41.7433 67.034 41.89C66.9207 42.03 66.8173 42.1767 66.724 42.33C66.6373 42.4767 66.564 42.61 66.504 42.73C66.4173 42.9033 66.3373 43.1133 66.264 43.36C66.1907 43.6067 66.154 43.8367 66.154 44.05C66.154 44.2367 66.1907 44.3933 66.264 44.52C66.344 44.64 66.4873 44.7 66.694 44.7ZM70.1562 45.06C69.9828 45.06 69.8395 44.98 69.7262 44.82C69.6195 44.6533 69.5795 44.3967 69.6062 44.05C69.6195 43.9033 69.6528 43.7167 69.7062 43.49C69.7595 43.2633 69.8295 43.02 69.9162 42.76C70.0095 42.4933 70.1128 42.2367 70.2262 41.99C70.3395 41.7367 70.4628 41.5133 70.5962 41.32C70.6695 41.22 70.7428 41.16 70.8162 41.14C70.8962 41.1133 71.0395 41.1 71.2462 41.1H71.7262C71.6128 41.26 71.4928 41.46 71.3662 41.7C71.2395 41.94 71.1228 42.18 71.0162 42.42C70.9095 42.6533 70.8262 42.85 70.7662 43.01C70.7528 43.0567 70.7262 43.14 70.6862 43.26C70.6462 43.3733 70.6095 43.5 70.5762 43.64C70.5428 43.78 70.5262 43.91 70.5262 44.03C70.5262 44.1367 70.5462 44.2267 70.5862 44.3C70.6262 44.3733 70.6995 44.41 70.8062 44.41C70.9328 44.4033 71.0695 44.3233 71.2162 44.17C71.3628 44.0167 71.5095 43.82 71.6562 43.58C71.8028 43.34 71.9462 43.09 72.0862 42.83C72.2328 42.5633 72.3628 42.3167 72.4762 42.09C72.5962 41.8567 72.6962 41.6767 72.7762 41.55C72.8762 41.3967 72.9828 41.2633 73.0962 41.15C73.2095 41.03 73.3395 40.97 73.4862 40.97C73.5395 40.97 73.6095 40.9733 73.6962 40.98C73.7895 40.98 73.8795 40.98 73.9662 40.98C74.0595 40.98 74.1228 40.9767 74.1562 40.97C74.1162 40.9967 74.0695 41.05 74.0162 41.13C73.9628 41.21 73.9095 41.2933 73.8562 41.38C73.8095 41.46 73.7728 41.5267 73.7462 41.58C73.5728 41.9267 73.4028 42.2767 73.2362 42.63C73.0762 42.9767 72.9562 43.3067 72.8762 43.62C72.8428 43.74 72.8262 43.8433 72.8262 43.93C72.8262 44.13 72.8928 44.23 73.0262 44.23C73.1195 44.23 73.2528 44.1633 73.4262 44.03C73.5595 43.9233 73.6895 43.7867 73.8162 43.62C73.9562 43.4467 74.0862 43.26 74.2062 43.06C74.3262 42.86 74.4295 42.6767 74.5162 42.51C74.5428 42.4633 74.5662 42.44 74.5862 42.44C74.6262 42.44 74.6462 42.4933 74.6462 42.6C74.6462 42.6533 74.6362 42.7167 74.6162 42.79C74.6028 42.8567 74.5762 42.9233 74.5362 42.99C74.4428 43.15 74.3328 43.3267 74.2062 43.52C74.0795 43.7067 73.9495 43.8933 73.8162 44.08C73.7228 44.2 73.5995 44.3367 73.4462 44.49C73.2928 44.6433 73.1295 44.7767 72.9562 44.89C72.7895 45.0033 72.6262 45.06 72.4662 45.06C72.3728 45.06 72.2862 45.04 72.2062 45C72.1262 44.9667 72.0595 44.8967 72.0062 44.79C71.9395 44.65 71.9062 44.46 71.9062 44.22C71.9062 44.1467 71.9095 44.07 71.9162 43.99C71.9228 43.9033 71.9328 43.8167 71.9462 43.73C71.8462 43.87 71.7395 44 71.6262 44.12C71.5195 44.24 71.4095 44.36 71.2962 44.48C71.0428 44.7333 70.8262 44.8933 70.6462 44.96C70.4728 45.0267 70.3095 45.06 70.1562 45.06ZM75.8084 45.07C75.595 45.07 75.4417 44.98 75.3484 44.8C75.275 44.64 75.2384 44.45 75.2384 44.23C75.2384 43.9833 75.275 43.71 75.3484 43.41C75.4217 43.11 75.5217 42.8033 75.6484 42.49C75.695 42.3767 75.755 42.2333 75.8284 42.06C75.9084 41.8867 76.0017 41.7167 76.1084 41.55C76.015 41.63 75.905 41.6967 75.7784 41.75C75.6517 41.7967 75.5284 41.82 75.4084 41.82C75.315 41.82 75.2384 41.8067 75.1784 41.78C75.125 41.8867 75.0384 42.06 74.9184 42.3C74.7984 42.54 74.6384 42.8233 74.4384 43.15C74.4184 43.1833 74.3984 43.1833 74.3784 43.15C74.365 43.11 74.3584 43.0567 74.3584 42.99C74.3584 42.9367 74.365 42.88 74.3784 42.82C74.3917 42.76 74.4117 42.7033 74.4384 42.65C74.505 42.5233 74.5717 42.3933 74.6384 42.26C74.705 42.12 74.765 41.9967 74.8184 41.89C74.8717 41.7833 74.9017 41.7167 74.9084 41.69C74.7884 41.63 74.6984 41.5467 74.6384 41.44C74.5784 41.3267 74.5484 41.2167 74.5484 41.11C74.5484 41.0033 74.5717 40.9067 74.6184 40.82C74.6717 40.7333 74.7484 40.6667 74.8484 40.62C74.9084 40.6 74.965 40.59 75.0184 40.59C75.165 40.59 75.285 40.6367 75.3784 40.73C75.3717 40.7567 75.365 40.7867 75.3584 40.82C75.3584 40.8467 75.3584 40.8767 75.3584 40.91C75.3584 41.1167 75.4417 41.27 75.6084 41.37C75.775 41.47 75.955 41.5067 76.1484 41.48C76.2417 41.3467 76.3484 41.23 76.4684 41.13C76.5884 41.03 76.7184 40.98 76.8584 40.98C76.9317 40.98 77.035 40.9833 77.1684 40.99C77.3084 40.9967 77.4084 40.9967 77.4684 40.99C77.4284 41.0167 77.3817 41.07 77.3284 41.15C77.275 41.23 77.225 41.3133 77.1784 41.4C77.1317 41.4867 77.095 41.5533 77.0684 41.6C76.8884 41.9467 76.7217 42.2933 76.5684 42.64C76.415 42.98 76.2984 43.3067 76.2184 43.62C76.205 43.68 76.1917 43.7367 76.1784 43.79C76.1717 43.8367 76.1684 43.8867 76.1684 43.94C76.1684 44.14 76.235 44.24 76.3684 44.24C76.4617 44.24 76.595 44.1733 76.7684 44.04C76.9217 43.9133 77.0584 43.7733 77.1784 43.62C77.3117 43.4467 77.4384 43.26 77.5584 43.06C77.6784 42.86 77.7817 42.6767 77.8684 42.51C77.9017 42.4567 77.925 42.43 77.9384 42.43C77.9784 42.43 77.9984 42.49 77.9984 42.61C77.9984 42.6567 77.9917 42.7133 77.9784 42.78C77.965 42.8467 77.9417 42.91 77.9084 42.97C77.8084 43.1367 77.695 43.32 77.5684 43.52C77.4417 43.7133 77.3117 43.9033 77.1784 44.09C77.0917 44.21 76.9684 44.3467 76.8084 44.5C76.655 44.6533 76.4884 44.7867 76.3084 44.9C76.135 45.0133 75.9684 45.07 75.8084 45.07ZM78.946 47.48C78.9793 47.4333 79.0227 47.35 79.076 47.23C79.1293 47.1167 79.186 46.9933 79.246 46.86C79.306 46.7267 79.356 46.6133 79.396 46.52C79.5093 46.24 79.6393 45.8967 79.786 45.49C79.9327 45.09 80.0827 44.67 80.236 44.23C80.3893 43.79 80.536 43.37 80.676 42.97C80.816 42.57 80.9393 42.24 81.046 41.98C81.146 41.74 81.2327 41.55 81.306 41.41C81.3793 41.2633 81.4827 41.16 81.616 41.1C81.756 41.0333 81.966 41 82.246 41H82.546C82.4527 41.0667 82.3293 41.22 82.176 41.46C82.0293 41.6933 81.8893 41.94 81.756 42.2C81.8027 42.14 81.846 42.0833 81.886 42.03C81.926 41.97 81.9693 41.9167 82.016 41.87C82.2293 41.61 82.456 41.3933 82.696 41.22C82.936 41.0467 83.1693 40.96 83.396 40.96C83.5827 40.96 83.7393 41.03 83.866 41.17C83.9993 41.31 84.066 41.5467 84.066 41.88C84.066 42.1867 84.006 42.4967 83.886 42.81C83.7727 43.1167 83.6193 43.41 83.426 43.69C83.2327 43.9633 83.0193 44.2067 82.786 44.42C82.7393 44.4667 82.686 44.5133 82.626 44.56C82.5727 44.6 82.516 44.64 82.456 44.68C82.6693 44.7 82.8793 44.65 83.086 44.53C83.2993 44.41 83.4927 44.2633 83.666 44.09C83.846 43.9167 83.9927 43.76 84.106 43.62C84.2393 43.4467 84.3727 43.2467 84.506 43.02C84.646 42.7933 84.7593 42.5933 84.846 42.42C84.8727 42.3733 84.896 42.35 84.916 42.35C84.9693 42.35 84.996 42.41 84.996 42.53C84.996 42.6367 84.9627 42.7467 84.896 42.86C84.8427 42.96 84.7693 43.0867 84.676 43.24C84.5827 43.3933 84.4993 43.5267 84.426 43.64C84.1193 44.0867 83.7627 44.4533 83.356 44.74C82.9493 45.0267 82.4593 45.17 81.886 45.17C81.8393 45.17 81.7893 45.17 81.736 45.17C81.6893 45.17 81.6393 45.1667 81.586 45.16C81.426 45.1467 81.276 45.1067 81.136 45.04C80.996 44.98 80.9027 44.8633 80.856 44.69L80.296 46.44C80.2227 46.6733 80.156 46.8667 80.096 47.02C80.0293 47.1733 79.9493 47.2867 79.856 47.36C79.756 47.44 79.6127 47.48 79.426 47.48H78.946ZM81.356 44.74C81.4693 44.74 81.5993 44.6833 81.746 44.57C81.8927 44.45 82.036 44.3033 82.176 44.13C82.3227 43.95 82.446 43.7767 82.546 43.61C82.6993 43.3433 82.8293 43.07 82.936 42.79C83.0427 42.51 83.096 42.28 83.096 42.1C83.096 41.9 83.016 41.8 82.856 41.8C82.716 41.8 82.5627 41.8667 82.396 42C82.276 42.0933 82.1393 42.23 81.986 42.41C81.8393 42.59 81.6927 42.7933 81.546 43.02C81.406 43.24 81.2893 43.4667 81.196 43.7C81.1093 43.9267 81.066 44.1333 81.066 44.32C81.066 44.3533 81.066 44.3867 81.066 44.42C81.0727 44.4467 81.0793 44.4767 81.086 44.51C81.1193 44.6633 81.2093 44.74 81.356 44.74ZM86.7716 44.86C86.4649 45.02 86.1416 45.1 85.8016 45.1C85.5149 45.1 85.2482 45.03 85.0016 44.89C84.7549 44.75 84.5882 44.5267 84.5016 44.22C84.4616 44.08 84.4416 43.9333 84.4416 43.78C84.4416 43.5267 84.4849 43.2667 84.5716 43C84.6649 42.7267 84.7849 42.4767 84.9316 42.25C85.1582 41.8967 85.4449 41.6033 85.7916 41.37C86.1382 41.1367 86.5216 41.02 86.9416 41.02C87.2549 41.02 87.4982 41.1 87.6716 41.26C87.8449 41.42 87.9316 41.6067 87.9316 41.82C87.9316 42.0733 87.8449 42.2967 87.6716 42.49C87.5049 42.6767 87.2849 42.82 87.0116 42.92C86.8782 42.9667 86.7349 43.0033 86.5816 43.03C86.4349 43.05 86.2949 43.06 86.1616 43.06C85.8882 43.06 85.6782 43.0233 85.5316 42.95C85.4049 43.2767 85.3416 43.5767 85.3416 43.85C85.3416 44.0967 85.3982 44.3 85.5116 44.46C85.6249 44.6133 85.8049 44.69 86.0516 44.69C86.2582 44.69 86.4616 44.6333 86.6616 44.52C86.8682 44.4067 87.0582 44.2667 87.2316 44.1C87.4116 43.9333 87.5616 43.7733 87.6816 43.62C87.7749 43.5067 87.8549 43.4 87.9216 43.3C87.9882 43.2 88.0582 43.0867 88.1316 42.96C88.2049 42.8267 88.2916 42.6633 88.3916 42.47C88.4182 42.4233 88.4416 42.4 88.4616 42.4C88.5016 42.4 88.5216 42.4533 88.5216 42.56C88.5216 42.62 88.5116 42.6867 88.4916 42.76C88.4782 42.8267 88.4516 42.8967 88.4116 42.97C88.3182 43.1367 88.2049 43.32 88.0716 43.52C87.9449 43.7133 87.8149 43.9 87.6816 44.08C87.5616 44.24 87.4249 44.3867 87.2716 44.52C87.1182 44.6533 86.9516 44.7667 86.7716 44.86ZM85.8616 42.73C85.8949 42.75 85.9316 42.7633 85.9716 42.77C86.0116 42.7767 86.0516 42.78 86.0916 42.78C86.2249 42.78 86.3582 42.75 86.4916 42.69C86.6249 42.6233 86.7382 42.5567 86.8316 42.49C86.9849 42.3833 87.1149 42.2567 87.2216 42.11C87.3282 41.9633 87.3882 41.7967 87.4016 41.61C87.4082 41.53 87.3882 41.4633 87.3416 41.41C87.3016 41.35 87.2282 41.32 87.1216 41.32C87.0682 41.32 87.0016 41.33 86.9216 41.35C86.8149 41.3767 86.7082 41.4267 86.6016 41.5C86.4949 41.5733 86.3916 41.66 86.2916 41.76C86.2582 41.7933 86.1982 41.86 86.1116 41.96C86.0316 42.0533 85.9549 42.16 85.8816 42.28C85.8082 42.3933 85.7716 42.4933 85.7716 42.58C85.7716 42.6533 85.8016 42.7033 85.8616 42.73ZM89.6755 45.07C89.4622 45.07 89.3089 44.98 89.2155 44.8C89.1422 44.64 89.1055 44.45 89.1055 44.23C89.1055 43.9833 89.1422 43.71 89.2155 43.41C89.2889 43.11 89.3889 42.8033 89.5155 42.49C89.5622 42.3767 89.6222 42.2333 89.6955 42.06C89.7755 41.8867 89.8689 41.7167 89.9755 41.55C89.8822 41.63 89.7722 41.6967 89.6455 41.75C89.5189 41.7967 89.3955 41.82 89.2755 41.82C89.1822 41.82 89.1055 41.8067 89.0455 41.78C88.9922 41.8867 88.9055 42.06 88.7855 42.3C88.6655 42.54 88.5055 42.8233 88.3055 43.15C88.2855 43.1833 88.2655 43.1833 88.2455 43.15C88.2322 43.11 88.2255 43.0567 88.2255 42.99C88.2255 42.9367 88.2322 42.88 88.2455 42.82C88.2589 42.76 88.2789 42.7033 88.3055 42.65C88.3722 42.5233 88.4389 42.3933 88.5055 42.26C88.5722 42.12 88.6322 41.9967 88.6855 41.89C88.7389 41.7833 88.7689 41.7167 88.7755 41.69C88.6555 41.63 88.5655 41.5467 88.5055 41.44C88.4455 41.3267 88.4155 41.2167 88.4155 41.11C88.4155 41.0033 88.4389 40.9067 88.4855 40.82C88.5389 40.7333 88.6155 40.6667 88.7155 40.62C88.7755 40.6 88.8322 40.59 88.8855 40.59C89.0322 40.59 89.1522 40.6367 89.2455 40.73C89.2389 40.7567 89.2322 40.7867 89.2255 40.82C89.2255 40.8467 89.2255 40.8767 89.2255 40.91C89.2255 41.1167 89.3089 41.27 89.4755 41.37C89.6422 41.47 89.8222 41.5067 90.0155 41.48C90.1089 41.3467 90.2155 41.23 90.3355 41.13C90.4555 41.03 90.5855 40.98 90.7255 40.98C90.7989 40.98 90.9022 40.9833 91.0355 40.99C91.1755 40.9967 91.2755 40.9967 91.3355 40.99C91.2955 41.0167 91.2489 41.07 91.1955 41.15C91.1422 41.23 91.0922 41.3133 91.0455 41.4C90.9989 41.4867 90.9622 41.5533 90.9355 41.6C90.7555 41.9467 90.5889 42.2933 90.4355 42.64C90.2822 42.98 90.1655 43.3067 90.0855 43.62C90.0722 43.68 90.0589 43.7367 90.0455 43.79C90.0389 43.8367 90.0355 43.8867 90.0355 43.94C90.0355 44.14 90.1022 44.24 90.2355 44.24C90.3289 44.24 90.4622 44.1733 90.6355 44.04C90.7889 43.9133 90.9255 43.7733 91.0455 43.62C91.1789 43.4467 91.3055 43.26 91.4255 43.06C91.5455 42.86 91.6489 42.6767 91.7355 42.51C91.7689 42.4567 91.7922 42.43 91.8055 42.43C91.8455 42.43 91.8655 42.49 91.8655 42.61C91.8655 42.6567 91.8589 42.7133 91.8455 42.78C91.8322 42.8467 91.8089 42.91 91.7755 42.97C91.6755 43.1367 91.5622 43.32 91.4355 43.52C91.3089 43.7133 91.1789 43.9033 91.0455 44.09C90.9589 44.21 90.8355 44.3467 90.6755 44.5C90.5222 44.6533 90.3555 44.7867 90.1755 44.9C90.0022 45.0133 89.8355 45.07 89.6755 45.07ZM90.2652 47.48C89.9185 47.48 89.6718 47.3967 89.5252 47.23C89.3785 47.0633 89.3052 46.8833 89.3052 46.69C89.3052 46.57 89.3318 46.4567 89.3852 46.35C89.4318 46.2433 89.4985 46.1667 89.5852 46.12C89.6518 46.0867 89.7118 46.07 89.7652 46.07C89.8385 46.07 89.9052 46.0933 89.9652 46.14C90.0252 46.1867 90.0552 46.25 90.0552 46.33C90.0552 46.35 90.0552 46.3667 90.0552 46.38C90.0485 46.4 90.0418 46.42 90.0352 46.44C89.9952 46.4733 89.9585 46.5233 89.9252 46.59C89.8852 46.6567 89.8585 46.7233 89.8452 46.79C89.8385 46.8033 89.8352 46.82 89.8352 46.84C89.8352 46.86 89.8352 46.8767 89.8352 46.89C89.8352 46.9767 89.8618 47.05 89.9152 47.11C89.9685 47.17 90.0285 47.2 90.0952 47.2C90.2685 47.2 90.4352 47.1367 90.5952 47.01C90.7552 46.8833 90.9018 46.7233 91.0352 46.53C91.1752 46.3433 91.2985 46.1533 91.4052 45.96C91.5118 45.7667 91.5985 45.6 91.6652 45.46C91.9718 44.84 92.2618 44.1933 92.5352 43.52C92.8152 42.8467 93.0785 42.19 93.3252 41.55H93.0452C92.9252 41.55 92.7985 41.57 92.6652 41.61C92.5385 41.65 92.4385 41.7367 92.3652 41.87C92.2585 42.0767 92.1418 42.2967 92.0152 42.53C91.8952 42.7633 91.7585 42.9967 91.6052 43.23C91.5785 43.2767 91.5552 43.3 91.5352 43.3C91.5018 43.3 91.4852 43.25 91.4852 43.15C91.4852 43.03 91.5052 42.93 91.5452 42.85C91.6452 42.6833 91.7418 42.5 91.8352 42.3C91.9352 42.0933 92.0252 41.8967 92.1052 41.71C92.1852 41.5233 92.2452 41.37 92.2852 41.25C92.3185 41.1567 92.3518 41.0933 92.3852 41.06C92.4252 41.0267 92.5052 41.0167 92.6252 41.03L93.5052 41.1C93.5852 40.8867 93.6618 40.68 93.7352 40.48C93.8152 40.2733 93.8918 40.0767 93.9652 39.89C94.1185 39.5033 94.2952 39.1333 94.4952 38.78C94.6952 38.4267 94.9418 38.14 95.2352 37.92C95.5352 37.6933 95.8985 37.58 96.3252 37.58C96.5718 37.5733 96.7818 37.61 96.9552 37.69C97.1285 37.77 97.2552 37.92 97.3352 38.14C97.3552 38.2 97.3652 38.27 97.3652 38.35C97.3652 38.4833 97.3318 38.62 97.2652 38.76C97.1985 38.9 97.1085 38.9967 96.9952 39.05C96.9618 39.07 96.9252 39.0833 96.8852 39.09C96.8452 39.0967 96.8085 39.1 96.7752 39.1C96.6885 39.1 96.6118 39.0767 96.5452 39.03C96.4785 38.9833 96.4452 38.9167 96.4452 38.83C96.4452 38.79 96.4552 38.7467 96.4752 38.7C96.5952 38.6133 96.6785 38.49 96.7252 38.33C96.7318 38.3033 96.7352 38.28 96.7352 38.26C96.7418 38.24 96.7452 38.22 96.7452 38.2C96.7452 38.0667 96.6952 37.97 96.5952 37.91C96.5552 37.8767 96.5118 37.8567 96.4652 37.85C96.4185 37.8367 96.3718 37.83 96.3252 37.83C96.1052 37.83 95.9085 37.9333 95.7352 38.14C95.5218 38.3867 95.3252 38.69 95.1452 39.05C94.9718 39.41 94.8152 39.7767 94.6752 40.15C94.5418 40.5233 94.4218 40.8533 94.3152 41.14C94.5885 41.14 94.8518 41.1367 95.1052 41.13C95.3652 41.1167 95.5885 41.1 95.7752 41.08C95.9618 41.0533 96.0752 41.0267 96.1152 41C96.0685 41.1267 95.9885 41.2267 95.8752 41.3C95.7685 41.3733 95.6052 41.4267 95.3852 41.46C95.2318 41.4867 95.0485 41.5067 94.8352 41.52C94.6218 41.5267 94.4018 41.5333 94.1752 41.54L93.8852 42.38C93.7918 42.6467 93.6785 42.9567 93.5452 43.31C93.4185 43.6633 93.2718 44.0333 93.1052 44.42C92.9385 44.8 92.7518 45.17 92.5452 45.53C92.3452 45.89 92.1252 46.2167 91.8852 46.51C91.6518 46.81 91.3985 47.0467 91.1252 47.22C90.8585 47.3933 90.5718 47.48 90.2652 47.48ZM97.3477 44.86C97.0411 45.02 96.7177 45.1 96.3777 45.1C96.0911 45.1 95.8244 45.03 95.5777 44.89C95.3311 44.75 95.1644 44.5267 95.0777 44.22C95.0377 44.08 95.0177 43.9333 95.0177 43.78C95.0177 43.5267 95.0611 43.2667 95.1477 43C95.2411 42.7267 95.3611 42.4767 95.5077 42.25C95.7344 41.8967 96.0211 41.6033 96.3677 41.37C96.7144 41.1367 97.0977 41.02 97.5177 41.02C97.8311 41.02 98.0744 41.1 98.2477 41.26C98.4211 41.42 98.5077 41.6067 98.5077 41.82C98.5077 42.0733 98.4211 42.2967 98.2477 42.49C98.0811 42.6767 97.8611 42.82 97.5877 42.92C97.4544 42.9667 97.3111 43.0033 97.1577 43.03C97.0111 43.05 96.8711 43.06 96.7377 43.06C96.4644 43.06 96.2544 43.0233 96.1077 42.95C95.9811 43.2767 95.9177 43.5767 95.9177 43.85C95.9177 44.0967 95.9744 44.3 96.0877 44.46C96.2011 44.6133 96.3811 44.69 96.6277 44.69C96.8344 44.69 97.0377 44.6333 97.2377 44.52C97.4444 44.4067 97.6344 44.2667 97.8077 44.1C97.9877 43.9333 98.1377 43.7733 98.2577 43.62C98.3511 43.5067 98.4311 43.4 98.4977 43.3C98.5644 43.2 98.6344 43.0867 98.7077 42.96C98.7811 42.8267 98.8677 42.6633 98.9677 42.47C98.9944 42.4233 99.0177 42.4 99.0377 42.4C99.0777 42.4 99.0977 42.4533 99.0977 42.56C99.0977 42.62 99.0877 42.6867 99.0677 42.76C99.0544 42.8267 99.0277 42.8967 98.9877 42.97C98.8944 43.1367 98.7811 43.32 98.6477 43.52C98.5211 43.7133 98.3911 43.9 98.2577 44.08C98.1377 44.24 98.0011 44.3867 97.8477 44.52C97.6944 44.6533 97.5277 44.7667 97.3477 44.86ZM96.4377 42.73C96.4711 42.75 96.5077 42.7633 96.5477 42.77C96.5877 42.7767 96.6277 42.78 96.6677 42.78C96.8011 42.78 96.9344 42.75 97.0677 42.69C97.2011 42.6233 97.3144 42.5567 97.4077 42.49C97.5611 42.3833 97.6911 42.2567 97.7977 42.11C97.9044 41.9633 97.9644 41.7967 97.9777 41.61C97.9844 41.53 97.9644 41.4633 97.9177 41.41C97.8777 41.35 97.8044 41.32 97.6977 41.32C97.6444 41.32 97.5777 41.33 97.4977 41.35C97.3911 41.3767 97.2844 41.4267 97.1777 41.5C97.0711 41.5733 96.9677 41.66 96.8677 41.76C96.8344 41.7933 96.7744 41.86 96.6877 41.96C96.6077 42.0533 96.5311 42.16 96.4577 42.28C96.3844 42.3933 96.3477 42.4933 96.3477 42.58C96.3477 42.6533 96.3777 42.7033 96.4377 42.73ZM99.9017 45.1C99.5884 45.1 99.3351 45.0433 99.1417 44.93C98.9484 44.81 98.8084 44.6533 98.7217 44.46C98.6417 44.26 98.6017 44.0467 98.6017 43.82C98.6017 43.5933 98.6351 43.3633 98.7017 43.13C98.7684 42.8967 98.8584 42.6767 98.9717 42.47C99.2051 42.05 99.4917 41.7033 99.8317 41.43C100.178 41.1567 100.602 41.02 101.102 41.02C101.415 41.02 101.658 41.1 101.832 41.26C102.005 41.42 102.092 41.6067 102.092 41.82C102.092 42.02 102.032 42.2033 101.912 42.37C101.798 42.5367 101.645 42.62 101.452 42.62C101.345 42.62 101.252 42.59 101.172 42.53C101.092 42.47 101.052 42.3767 101.052 42.25C101.052 42.23 101.052 42.21 101.052 42.19C101.058 42.1633 101.065 42.1367 101.072 42.11C101.112 42.1033 101.168 42.0933 101.242 42.08C101.322 42.06 101.385 42.0133 101.432 41.94C101.518 41.82 101.562 41.7 101.562 41.58C101.562 41.5067 101.538 41.4467 101.492 41.4C101.452 41.3467 101.382 41.32 101.282 41.32C101.102 41.32 100.918 41.3867 100.732 41.52C100.545 41.6467 100.368 41.8167 100.202 42.03C100.042 42.2433 99.9017 42.4767 99.7817 42.73C99.5951 43.1367 99.5017 43.51 99.5017 43.85C99.5017 44.0967 99.5584 44.3 99.6717 44.46C99.7851 44.6133 99.9651 44.69 100.212 44.69C100.525 44.69 100.818 44.5833 101.092 44.37C101.372 44.15 101.622 43.8967 101.842 43.61C101.988 43.4233 102.118 43.2333 102.232 43.04C102.352 42.8467 102.452 42.67 102.532 42.51C102.558 42.4633 102.582 42.44 102.602 42.44C102.642 42.44 102.662 42.4967 102.662 42.61C102.662 42.6633 102.652 42.7267 102.632 42.8C102.618 42.8667 102.595 42.93 102.562 42.99C102.448 43.1767 102.332 43.3633 102.212 43.55C102.098 43.7367 101.975 43.9133 101.842 44.08C101.615 44.3733 101.348 44.6167 101.042 44.81C100.735 45.0033 100.355 45.1 99.9017 45.1ZM102.996 45.06C102.802 45.06 102.656 44.9833 102.556 44.83C102.509 44.7567 102.476 44.67 102.456 44.57C102.436 44.47 102.426 44.3667 102.426 44.26C102.426 44.1533 102.432 44.0467 102.446 43.94C102.459 43.8267 102.476 43.7167 102.496 43.61C102.529 43.4367 102.566 43.28 102.606 43.14C102.652 42.9933 102.699 42.8533 102.746 42.72V42.71C102.692 42.81 102.626 42.92 102.546 43.04C102.466 43.1533 102.409 43.2367 102.376 43.29C102.329 43.3633 102.292 43.4 102.266 43.4C102.239 43.4 102.226 43.37 102.226 43.31C102.226 43.1767 102.266 43.03 102.346 42.87C102.399 42.7633 102.472 42.6267 102.566 42.46C102.659 42.2867 102.756 42.1 102.856 41.9C102.956 41.7 103.042 41.5067 103.116 41.32H102.446C102.412 41.32 102.406 41.2933 102.426 41.24C102.446 41.1867 102.476 41.1367 102.516 41.09C102.556 41.0367 102.586 41.01 102.606 41.01H103.366C103.439 40.8367 103.522 40.65 103.616 40.45C103.716 40.25 103.826 40.0633 103.946 39.89C104.072 39.71 104.209 39.5633 104.356 39.45C104.502 39.3367 104.659 39.28 104.826 39.28C104.899 39.28 104.989 39.28 105.096 39.28C105.209 39.28 105.279 39.2767 105.306 39.27C105.166 39.3633 105.002 39.55 104.816 39.83C104.629 40.1033 104.426 40.4967 104.206 41.01H105.216C105.236 41.01 105.229 41.0367 105.196 41.09C105.162 41.1367 105.119 41.1867 105.066 41.24C105.019 41.2933 104.972 41.32 104.926 41.32H104.066C103.979 41.54 103.882 41.78 103.776 42.04C103.676 42.3 103.582 42.5567 103.496 42.81C103.416 43.0567 103.356 43.2833 103.316 43.49C103.289 43.6167 103.276 43.7333 103.276 43.84C103.276 44.0933 103.356 44.22 103.516 44.22C103.622 44.22 103.749 44.1667 103.896 44.06C104.042 43.9533 104.189 43.8067 104.336 43.62C104.469 43.4467 104.596 43.26 104.716 43.06C104.842 42.86 104.949 42.6767 105.036 42.51C105.062 42.4633 105.086 42.44 105.106 42.44C105.146 42.44 105.166 42.4933 105.166 42.6C105.166 42.6533 105.156 42.7167 105.136 42.79C105.122 42.8567 105.096 42.9233 105.056 42.99C104.962 43.15 104.852 43.3267 104.726 43.52C104.599 43.7067 104.469 43.8933 104.336 44.08C104.242 44.2 104.119 44.3367 103.966 44.49C103.819 44.6433 103.659 44.7767 103.486 44.89C103.319 45.0033 103.156 45.06 102.996 45.06ZM110.334 45.06C110.107 45.06 109.951 44.9933 109.864 44.86C109.784 44.72 109.744 44.56 109.744 44.38C109.744 44.16 109.787 43.8967 109.874 43.59C109.961 43.2767 110.061 42.9633 110.174 42.65C110.294 42.33 110.401 42.0467 110.494 41.8C110.521 41.74 110.534 41.6767 110.534 41.61C110.534 41.5367 110.511 41.4833 110.464 41.45C110.417 41.4167 110.357 41.4 110.284 41.4C110.177 41.4 110.057 41.4333 109.924 41.5C109.717 41.6067 109.521 41.7767 109.334 42.01C109.147 42.2433 108.997 42.4867 108.884 42.74C108.757 43.0267 108.644 43.3133 108.544 43.6C108.444 43.8867 108.364 44.12 108.304 44.3C108.264 44.4133 108.227 44.53 108.194 44.65C108.161 44.77 108.127 44.8867 108.094 45H107.124C107.124 45 107.147 44.9167 107.194 44.75C107.234 44.5833 107.287 44.4167 107.354 44.25C107.467 43.9567 107.581 43.6633 107.694 43.37C107.814 43.0767 107.917 42.8167 108.004 42.59C108.031 42.5233 108.071 42.4 108.124 42.22C108.184 42.0333 108.237 41.84 108.284 41.64C108.337 41.44 108.364 41.2767 108.364 41.15C108.364 41.0767 108.354 41.0267 108.334 41C108.394 41 108.461 41 108.534 41C108.614 40.9933 108.687 40.99 108.754 40.99C108.847 40.99 108.934 40.9933 109.014 41C109.101 41.0067 109.157 41.0233 109.184 41.05C109.264 41.11 109.304 41.1967 109.304 41.31C109.304 41.39 109.287 41.47 109.254 41.55C109.227 41.63 109.207 41.6967 109.194 41.75C109.287 41.6633 109.384 41.58 109.484 41.5C109.584 41.42 109.737 41.3167 109.944 41.19C110.064 41.1167 110.214 41.0567 110.394 41.01C110.574 40.9633 110.737 40.94 110.884 40.94C111.264 40.94 111.454 41.1167 111.454 41.47C111.454 41.53 111.447 41.5967 111.434 41.67C111.427 41.7433 111.407 41.8233 111.374 41.91C111.341 42.0167 111.287 42.1633 111.214 42.35C111.141 42.5367 111.064 42.7367 110.984 42.95C110.911 43.1567 110.847 43.3533 110.794 43.54C110.741 43.7267 110.714 43.8767 110.714 43.99C110.714 44.15 110.774 44.23 110.894 44.23C111.001 44.23 111.134 44.1633 111.294 44.03C111.447 43.9033 111.581 43.7667 111.694 43.62C111.834 43.4467 111.961 43.2633 112.074 43.07C112.194 42.87 112.297 42.6867 112.384 42.52C112.417 42.4667 112.441 42.44 112.454 42.44C112.494 42.44 112.514 42.4967 112.514 42.61C112.514 42.6633 112.504 42.7267 112.484 42.8C112.471 42.8667 112.447 42.93 112.414 42.99C112.321 43.15 112.211 43.3267 112.084 43.52C111.957 43.7133 111.827 43.9 111.694 44.08C111.601 44.2067 111.477 44.3467 111.324 44.5C111.171 44.6533 111.007 44.7867 110.834 44.9C110.661 45.0067 110.494 45.06 110.334 45.06ZM113.169 45.08C112.863 45.08 112.596 44.9833 112.369 44.79C112.149 44.5967 112.039 44.2867 112.039 43.86C112.039 43.5467 112.096 43.22 112.209 42.88C112.323 42.54 112.483 42.2233 112.689 41.93C112.903 41.6367 113.159 41.3967 113.459 41.21C113.759 41.0233 114.096 40.93 114.469 40.93C114.776 40.93 115.013 40.99 115.179 41.11C115.353 41.2233 115.476 41.3767 115.549 41.57C115.623 41.7633 115.659 41.97 115.659 42.19C115.659 42.3567 115.639 42.5267 115.599 42.7C115.566 42.8667 115.516 43.0333 115.449 43.2C115.563 43.3333 115.706 43.4 115.879 43.4C116.066 43.4 116.239 43.33 116.399 43.19C116.493 43.11 116.576 43.01 116.649 42.89C116.729 42.7633 116.799 42.6467 116.859 42.54C116.879 42.5 116.903 42.48 116.929 42.48C116.963 42.48 116.979 42.5267 116.979 42.62C116.979 42.68 116.969 42.75 116.949 42.83C116.936 42.91 116.903 42.99 116.849 43.07C116.749 43.2433 116.646 43.3767 116.539 43.47C116.433 43.5567 116.313 43.6267 116.179 43.68C116.079 43.72 115.973 43.74 115.859 43.74C115.653 43.74 115.466 43.6767 115.299 43.55C115.246 43.6633 115.179 43.78 115.099 43.9C114.906 44.2267 114.656 44.5067 114.349 44.74C114.043 44.9667 113.649 45.08 113.169 45.08ZM113.549 44.7C113.703 44.7 113.849 44.65 113.989 44.55C114.136 44.4433 114.269 44.3133 114.389 44.16C114.509 44.0067 114.613 43.8467 114.699 43.68C114.793 43.5133 114.869 43.3667 114.929 43.24C114.703 43.0467 114.589 42.8033 114.589 42.51C114.589 42.3167 114.643 42.1667 114.749 42.06C114.856 41.9533 115.003 41.9067 115.189 41.92C115.183 41.7667 115.143 41.64 115.069 41.54C114.996 41.44 114.876 41.39 114.709 41.39C114.556 41.39 114.409 41.4367 114.269 41.53C114.136 41.6233 114.009 41.7433 113.889 41.89C113.776 42.03 113.673 42.1767 113.579 42.33C113.493 42.4767 113.419 42.61 113.359 42.73C113.273 42.9033 113.193 43.1133 113.119 43.36C113.046 43.6067 113.009 43.8367 113.009 44.05C113.009 44.2367 113.046 44.3933 113.119 44.52C113.199 44.64 113.343 44.7 113.549 44.7ZM117.332 45.06C117.138 45.06 116.992 44.9833 116.892 44.83C116.845 44.7567 116.812 44.67 116.792 44.57C116.772 44.47 116.762 44.3667 116.762 44.26C116.762 44.1533 116.768 44.0467 116.782 43.94C116.795 43.8267 116.812 43.7167 116.832 43.61C116.865 43.4367 116.902 43.28 116.942 43.14C116.988 42.9933 117.035 42.8533 117.082 42.72V42.71C117.028 42.81 116.962 42.92 116.882 43.04C116.802 43.1533 116.745 43.2367 116.712 43.29C116.665 43.3633 116.628 43.4 116.602 43.4C116.575 43.4 116.562 43.37 116.562 43.31C116.562 43.1767 116.602 43.03 116.682 42.87C116.735 42.7633 116.808 42.6267 116.902 42.46C116.995 42.2867 117.092 42.1 117.192 41.9C117.292 41.7 117.378 41.5067 117.452 41.32H116.782C116.748 41.32 116.742 41.2933 116.762 41.24C116.782 41.1867 116.812 41.1367 116.852 41.09C116.892 41.0367 116.922 41.01 116.942 41.01H117.702C117.775 40.8367 117.858 40.65 117.952 40.45C118.052 40.25 118.162 40.0633 118.282 39.89C118.408 39.71 118.545 39.5633 118.692 39.45C118.838 39.3367 118.995 39.28 119.162 39.28C119.235 39.28 119.325 39.28 119.432 39.28C119.545 39.28 119.615 39.2767 119.642 39.27C119.502 39.3633 119.338 39.55 119.152 39.83C118.965 40.1033 118.762 40.4967 118.542 41.01H119.552C119.572 41.01 119.565 41.0367 119.532 41.09C119.498 41.1367 119.455 41.1867 119.402 41.24C119.355 41.2933 119.308 41.32 119.262 41.32H118.402C118.315 41.54 118.218 41.78 118.112 42.04C118.012 42.3 117.918 42.5567 117.832 42.81C117.752 43.0567 117.692 43.2833 117.652 43.49C117.625 43.6167 117.612 43.7333 117.612 43.84C117.612 44.0933 117.692 44.22 117.852 44.22C117.958 44.22 118.085 44.1667 118.232 44.06C118.378 43.9533 118.525 43.8067 118.672 43.62C118.805 43.4467 118.932 43.26 119.052 43.06C119.178 42.86 119.285 42.6767 119.372 42.51C119.398 42.4633 119.422 42.44 119.442 42.44C119.482 42.44 119.502 42.4933 119.502 42.6C119.502 42.6533 119.492 42.7167 119.472 42.79C119.458 42.8567 119.432 42.9233 119.392 42.99C119.298 43.15 119.188 43.3267 119.062 43.52C118.935 43.7067 118.805 43.8933 118.672 44.08C118.578 44.2 118.455 44.3367 118.302 44.49C118.155 44.6433 117.995 44.7767 117.822 44.89C117.655 45.0033 117.492 45.06 117.332 45.06ZM121.342 44.86C121.035 45.02 120.712 45.1 120.372 45.1C120.085 45.1 119.819 45.03 119.572 44.89C119.325 44.75 119.159 44.5267 119.072 44.22C119.032 44.08 119.012 43.9333 119.012 43.78C119.012 43.5267 119.055 43.2667 119.142 43C119.235 42.7267 119.355 42.4767 119.502 42.25C119.729 41.8967 120.015 41.6033 120.362 41.37C120.709 41.1367 121.092 41.02 121.512 41.02C121.825 41.02 122.069 41.1 122.242 41.26C122.415 41.42 122.502 41.6067 122.502 41.82C122.502 42.0733 122.415 42.2967 122.242 42.49C122.075 42.6767 121.855 42.82 121.582 42.92C121.449 42.9667 121.305 43.0033 121.152 43.03C121.005 43.05 120.865 43.06 120.732 43.06C120.459 43.06 120.249 43.0233 120.102 42.95C119.975 43.2767 119.912 43.5767 119.912 43.85C119.912 44.0967 119.969 44.3 120.082 44.46C120.195 44.6133 120.375 44.69 120.622 44.69C120.829 44.69 121.032 44.6333 121.232 44.52C121.439 44.4067 121.629 44.2667 121.802 44.1C121.982 43.9333 122.132 43.7733 122.252 43.62C122.345 43.5067 122.425 43.4 122.492 43.3C122.559 43.2 122.629 43.0867 122.702 42.96C122.775 42.8267 122.862 42.6633 122.962 42.47C122.989 42.4233 123.012 42.4 123.032 42.4C123.072 42.4 123.092 42.4533 123.092 42.56C123.092 42.62 123.082 42.6867 123.062 42.76C123.049 42.8267 123.022 42.8967 122.982 42.97C122.889 43.1367 122.775 43.32 122.642 43.52C122.515 43.7133 122.385 43.9 122.252 44.08C122.132 44.24 121.995 44.3867 121.842 44.52C121.689 44.6533 121.522 44.7667 121.342 44.86ZM120.432 42.73C120.465 42.75 120.502 42.7633 120.542 42.77C120.582 42.7767 120.622 42.78 120.662 42.78C120.795 42.78 120.929 42.75 121.062 42.69C121.195 42.6233 121.309 42.5567 121.402 42.49C121.555 42.3833 121.685 42.2567 121.792 42.11C121.899 41.9633 121.959 41.7967 121.972 41.61C121.979 41.53 121.959 41.4633 121.912 41.41C121.872 41.35 121.799 41.32 121.692 41.32C121.639 41.32 121.572 41.33 121.492 41.35C121.385 41.3767 121.279 41.4267 121.172 41.5C121.065 41.5733 120.962 41.66 120.862 41.76C120.829 41.7933 120.769 41.86 120.682 41.96C120.602 42.0533 120.525 42.16 120.452 42.28C120.379 42.3933 120.342 42.4933 120.342 42.58C120.342 42.6533 120.372 42.7033 120.432 42.73ZM123.66 45.2C123.433 45.2 123.22 45.17 123.02 45.11C122.82 45.05 122.657 44.9567 122.53 44.83C122.403 44.7033 122.34 44.5433 122.34 44.35C122.34 44.2033 122.383 44.06 122.47 43.92C122.563 43.78 122.693 43.71 122.86 43.71C122.933 43.71 123 43.7267 123.06 43.76C123.12 43.7933 123.16 43.8367 123.18 43.89C123.173 43.8967 123.157 43.92 123.13 43.96C123.103 43.9933 123.087 44.0167 123.08 44.03C123.02 44.15 122.99 44.26 122.99 44.36C122.99 44.5 123.04 44.6133 123.14 44.7C123.247 44.7867 123.383 44.83 123.55 44.83C123.77 44.8233 123.96 44.7467 124.12 44.6C124.287 44.4467 124.37 44.2667 124.37 44.06C124.37 43.94 124.343 43.8267 124.29 43.72C124.203 43.54 124.087 43.3867 123.94 43.26C123.8 43.1267 123.663 42.9933 123.53 42.86C123.403 42.7267 123.31 42.5667 123.25 42.38C123.223 42.2933 123.21 42.1867 123.21 42.06C123.21 41.9333 123.227 41.81 123.26 41.69C123.293 41.5633 123.343 41.4567 123.41 41.37C123.503 41.2433 123.643 41.1267 123.83 41.02C124.063 40.8933 124.337 40.83 124.65 40.83C124.857 40.83 125.04 40.8567 125.2 40.91C125.32 40.95 125.423 41.0167 125.51 41.11C125.603 41.1967 125.65 41.3133 125.65 41.46C125.65 41.6267 125.597 41.7867 125.49 41.94C125.39 42.0867 125.243 42.1767 125.05 42.21C124.93 42.2233 124.823 42.2033 124.73 42.15C124.637 42.09 124.603 41.98 124.63 41.82C124.81 41.78 124.94 41.7067 125.02 41.6C125.06 41.54 125.08 41.48 125.08 41.42C125.08 41.3067 125.033 41.23 124.94 41.19C124.853 41.1433 124.77 41.12 124.69 41.12C124.59 41.12 124.493 41.1333 124.4 41.16C124.313 41.18 124.233 41.2167 124.16 41.27C124.013 41.3967 123.94 41.5433 123.94 41.71C123.94 41.7367 123.943 41.7667 123.95 41.8C123.963 41.8333 123.973 41.8667 123.98 41.9C124.013 41.9867 124.063 42.0667 124.13 42.14C124.197 42.2133 124.263 42.2767 124.33 42.33C124.497 42.45 124.667 42.58 124.84 42.72C125.02 42.86 125.153 43.03 125.24 43.23C125.307 43.37 125.34 43.5133 125.34 43.66C125.34 43.86 125.29 44.0433 125.19 44.21C125.09 44.37 124.977 44.4967 124.85 44.59C125.07 44.4967 125.283 44.3333 125.49 44.1C125.703 43.86 125.887 43.6233 126.04 43.39C126.14 43.2367 126.23 43.0933 126.31 42.96C126.397 42.82 126.483 42.6667 126.57 42.5C126.597 42.4533 126.62 42.43 126.64 42.43C126.68 42.43 126.7 42.4867 126.7 42.6C126.7 42.6467 126.69 42.7033 126.67 42.77C126.657 42.8367 126.633 42.9033 126.6 42.97C126.48 43.17 126.367 43.3567 126.26 43.53C126.153 43.6967 126.023 43.88 125.87 44.08C125.563 44.4867 125.237 44.7767 124.89 44.95C124.543 45.1167 124.133 45.2 123.66 45.2ZM130.017 45.06C129.824 45.06 129.677 44.9833 129.577 44.83C129.531 44.7567 129.497 44.67 129.477 44.57C129.457 44.47 129.447 44.3667 129.447 44.26C129.447 44.1533 129.454 44.0467 129.467 43.94C129.481 43.8267 129.497 43.7167 129.517 43.61C129.551 43.4367 129.587 43.28 129.627 43.14C129.674 42.9933 129.721 42.8533 129.767 42.72V42.71C129.714 42.81 129.647 42.92 129.567 43.04C129.487 43.1533 129.431 43.2367 129.397 43.29C129.351 43.3633 129.314 43.4 129.287 43.4C129.261 43.4 129.247 43.37 129.247 43.31C129.247 43.1767 129.287 43.03 129.367 42.87C129.421 42.7633 129.494 42.6267 129.587 42.46C129.681 42.2867 129.777 42.1 129.877 41.9C129.977 41.7 130.064 41.5067 130.137 41.32H129.467C129.434 41.32 129.427 41.2933 129.447 41.24C129.467 41.1867 129.497 41.1367 129.537 41.09C129.577 41.0367 129.607 41.01 129.627 41.01H130.387C130.461 40.8367 130.544 40.65 130.637 40.45C130.737 40.25 130.847 40.0633 130.967 39.89C131.094 39.71 131.231 39.5633 131.377 39.45C131.524 39.3367 131.681 39.28 131.847 39.28C131.921 39.28 132.011 39.28 132.117 39.28C132.231 39.28 132.301 39.2767 132.327 39.27C132.187 39.3633 132.024 39.55 131.837 39.83C131.651 40.1033 131.447 40.4967 131.227 41.01H132.237C132.257 41.01 132.251 41.0367 132.217 41.09C132.184 41.1367 132.141 41.1867 132.087 41.24C132.041 41.2933 131.994 41.32 131.947 41.32H131.087C131.001 41.54 130.904 41.78 130.797 42.04C130.697 42.3 130.604 42.5567 130.517 42.81C130.437 43.0567 130.377 43.2833 130.337 43.49C130.311 43.6167 130.297 43.7333 130.297 43.84C130.297 44.0933 130.377 44.22 130.537 44.22C130.644 44.22 130.771 44.1667 130.917 44.06C131.064 43.9533 131.211 43.8067 131.357 43.62C131.491 43.4467 131.617 43.26 131.737 43.06C131.864 42.86 131.971 42.6767 132.057 42.51C132.084 42.4633 132.107 42.44 132.127 42.44C132.167 42.44 132.187 42.4933 132.187 42.6C132.187 42.6533 132.177 42.7167 132.157 42.79C132.144 42.8567 132.117 42.9233 132.077 42.99C131.984 43.15 131.874 43.3267 131.747 43.52C131.621 43.7067 131.491 43.8933 131.357 44.08C131.264 44.2 131.141 44.3367 130.987 44.49C130.841 44.6433 130.681 44.7767 130.507 44.89C130.341 45.0033 130.177 45.06 130.017 45.06ZM134.747 45.06C134.541 45.06 134.397 44.98 134.317 44.82C134.244 44.66 134.207 44.4633 134.207 44.23C134.207 44.0167 134.227 43.8067 134.267 43.6C134.287 43.5067 134.307 43.4133 134.327 43.32C134.354 43.22 134.384 43.1167 134.417 43.01C134.304 43.2167 134.184 43.4167 134.057 43.61C133.937 43.8033 133.814 43.9733 133.687 44.12C133.474 44.38 133.247 44.5967 133.007 44.77C132.774 44.9433 132.541 45.03 132.307 45.03C132.121 45.03 131.961 44.9633 131.827 44.83C131.701 44.69 131.637 44.45 131.637 44.11C131.637 43.7633 131.697 43.4067 131.817 43.04C131.937 42.6733 132.104 42.3333 132.317 42.02C132.537 41.7 132.794 41.4433 133.087 41.25C133.387 41.0567 133.714 40.96 134.067 40.96C134.181 40.96 134.304 40.9767 134.437 41.01C134.571 41.0433 134.694 41.1067 134.807 41.2C134.921 41.2867 134.997 41.41 135.037 41.57C135.044 41.5567 135.051 41.5467 135.057 41.54C135.071 41.5333 135.081 41.5267 135.087 41.52C135.181 41.3733 135.287 41.25 135.407 41.15C135.527 41.05 135.661 41 135.807 41C135.881 41 135.984 41.0033 136.117 41.01C136.251 41.0167 136.347 41.0167 136.407 41.01C136.374 41.0367 136.327 41.09 136.267 41.17C136.214 41.25 136.164 41.3333 136.117 41.42C136.071 41.5 136.034 41.5633 136.007 41.61C135.827 41.9567 135.664 42.3 135.517 42.64C135.371 42.98 135.257 43.3067 135.177 43.62C135.157 43.6867 135.144 43.75 135.137 43.81C135.131 43.8633 135.127 43.9167 135.127 43.97C135.127 44.1433 135.184 44.23 135.297 44.23C135.404 44.23 135.537 44.1633 135.697 44.03C135.931 43.8433 136.134 43.61 136.307 43.33C136.487 43.05 136.644 42.78 136.777 42.52C136.804 42.4733 136.827 42.45 136.847 42.45C136.887 42.45 136.907 42.5067 136.907 42.62C136.907 42.6733 136.897 42.7333 136.877 42.8C136.864 42.8667 136.841 42.93 136.807 42.99C136.714 43.15 136.591 43.3467 136.437 43.58C136.291 43.8133 136.124 44.0433 135.937 44.27C135.751 44.49 135.554 44.6767 135.347 44.83C135.147 44.9833 134.947 45.06 134.747 45.06ZM132.757 44.19C132.777 44.1967 132.807 44.2 132.847 44.2C132.974 44.2 133.111 44.1467 133.257 44.04C133.404 43.9333 133.551 43.7967 133.697 43.63C133.844 43.4567 133.974 43.2833 134.087 43.11C134.381 42.6433 134.597 42.2933 134.737 42.06C134.877 41.8267 134.957 41.6933 134.977 41.66C134.944 41.5467 134.884 41.4633 134.797 41.41C134.717 41.3567 134.621 41.33 134.507 41.33C134.361 41.33 134.204 41.37 134.037 41.45C133.877 41.53 133.741 41.6267 133.627 41.74C133.454 41.9133 133.287 42.1367 133.127 42.41C132.974 42.6833 132.847 42.9533 132.747 43.22C132.654 43.4867 132.607 43.71 132.607 43.89C132.607 44.0567 132.657 44.1567 132.757 44.19ZM135.794 45C135.867 44.8667 135.951 44.6967 136.044 44.49C136.131 44.2833 136.217 44.06 136.304 43.82C136.397 43.5733 136.481 43.3367 136.554 43.11C136.721 42.5967 136.891 42.09 137.064 41.59C137.244 41.09 137.424 40.6567 137.604 40.29C137.677 40.13 137.771 39.9367 137.884 39.71C137.997 39.4767 138.124 39.2367 138.264 38.99C138.411 38.7433 138.567 38.5133 138.734 38.3C138.907 38.08 139.091 37.9033 139.284 37.77C139.484 37.6367 139.691 37.57 139.904 37.57C140.117 37.57 140.261 37.6167 140.334 37.71C140.414 37.8033 140.454 37.92 140.454 38.06C140.454 38.2133 140.421 38.3767 140.354 38.55C140.287 38.7233 140.224 38.8667 140.164 38.98C140.031 39.2333 139.857 39.52 139.644 39.84C139.437 40.1533 139.221 40.4467 138.994 40.72C138.881 40.86 138.744 41.02 138.584 41.2C138.424 41.3733 138.264 41.54 138.104 41.7C137.951 41.86 137.817 41.9967 137.704 42.11L137.524 42.61C137.697 42.3833 137.881 42.18 138.074 42C138.267 41.82 138.477 41.64 138.704 41.46C138.871 41.3267 139.044 41.2267 139.224 41.16C139.411 41.0933 139.581 41.06 139.734 41.06C139.847 41.06 139.951 41.0767 140.044 41.11C140.144 41.1433 140.217 41.1967 140.264 41.27C140.297 41.3167 140.321 41.3667 140.334 41.42C140.347 41.4733 140.354 41.5267 140.354 41.58C140.354 41.6867 140.334 41.79 140.294 41.89C140.207 42.0967 140.081 42.2733 139.914 42.42C139.754 42.56 139.571 42.6667 139.364 42.74C139.291 42.7667 139.194 42.7967 139.074 42.83C138.954 42.8633 138.847 42.8867 138.754 42.9C138.767 42.9933 138.777 43.0867 138.784 43.18C138.797 43.2733 138.811 43.3667 138.824 43.46C138.864 43.6867 138.914 43.88 138.974 44.04C139.041 44.2 139.144 44.28 139.284 44.28C139.411 44.28 139.581 44.1967 139.794 44.03C139.947 43.91 140.081 43.7733 140.194 43.62C140.327 43.4467 140.454 43.2633 140.574 43.07C140.694 42.87 140.797 42.6867 140.884 42.52C140.911 42.4733 140.934 42.45 140.954 42.45C140.994 42.45 141.014 42.5033 141.014 42.61C141.014 42.67 141.004 42.7367 140.984 42.81C140.971 42.8767 140.944 42.9433 140.904 43.01C140.811 43.17 140.701 43.3433 140.574 43.53C140.454 43.7167 140.327 43.9 140.194 44.08C140.121 44.18 140.027 44.29 139.914 44.41C139.801 44.53 139.681 44.64 139.554 44.74C139.441 44.8267 139.304 44.9067 139.144 44.98C138.984 45.0467 138.827 45.08 138.674 45.08C138.554 45.08 138.441 45.0533 138.334 45C138.234 44.9467 138.151 44.8567 138.084 44.73C138.011 44.59 137.954 44.4233 137.914 44.23C137.874 44.0367 137.854 43.8433 137.854 43.65C137.854 43.5433 137.857 43.44 137.864 43.34C137.877 43.2333 137.897 43.1367 137.924 43.05C137.957 42.9367 137.991 42.86 138.024 42.82C138.057 42.78 138.101 42.76 138.154 42.76C138.347 42.7533 138.537 42.7267 138.724 42.68C138.911 42.6267 139.067 42.5433 139.194 42.43C139.347 42.2967 139.424 42.1467 139.424 41.98C139.424 41.9067 139.397 41.8433 139.344 41.79C139.297 41.73 139.217 41.7 139.104 41.7C138.951 41.7 138.801 41.75 138.654 41.85C138.507 41.95 138.367 42.08 138.234 42.24C138.101 42.4 137.977 42.5667 137.864 42.74C137.751 42.9067 137.654 43.06 137.574 43.2C137.514 43.3 137.447 43.43 137.374 43.59C137.301 43.75 137.224 43.9167 137.144 44.09C137.064 44.2633 136.984 44.42 136.904 44.56C136.824 44.7 136.747 44.8033 136.674 44.87C136.587 44.9567 136.497 45 136.404 45H135.794ZM137.964 41.43C138.297 41.0433 138.624 40.6367 138.944 40.21C139.264 39.7833 139.537 39.3467 139.764 38.9C139.784 38.8667 139.817 38.7967 139.864 38.69C139.911 38.5833 139.954 38.4667 139.994 38.34C140.041 38.2133 140.064 38.1033 140.064 38.01C140.064 37.89 140.017 37.83 139.924 37.83C139.831 37.83 139.717 37.91 139.584 38.07C139.457 38.23 139.321 38.4433 139.174 38.71C139.034 38.97 138.891 39.26 138.744 39.58C138.597 39.8933 138.457 40.2133 138.324 40.54C138.191 40.86 138.071 41.1567 137.964 41.43ZM142.725 40.2C142.552 40.14 142.465 40.0267 142.465 39.86C142.465 39.7067 142.525 39.55 142.645 39.39C142.772 39.2233 142.909 39.1167 143.055 39.07C143.089 39.0567 143.115 39.05 143.135 39.05C143.162 39.05 143.189 39.05 143.215 39.05C143.329 39.05 143.422 39.0833 143.495 39.15C143.569 39.2167 143.605 39.2933 143.605 39.38C143.605 39.5 143.542 39.6 143.415 39.68C143.315 39.6667 143.219 39.69 143.125 39.75C143.032 39.81 142.949 39.8833 142.875 39.97C142.809 40.0567 142.759 40.1333 142.725 40.2ZM141.005 45.06C140.919 45.06 140.835 45.04 140.755 45C140.675 44.9667 140.609 44.8967 140.555 44.79C140.482 44.63 140.445 44.44 140.445 44.22C140.445 43.98 140.482 43.7133 140.555 43.42C140.629 43.12 140.725 42.8133 140.845 42.5C140.892 42.3867 140.952 42.2467 141.025 42.08C141.099 41.9133 141.185 41.7467 141.285 41.58C141.385 41.4133 141.499 41.2767 141.625 41.17C141.759 41.0567 141.902 41 142.055 41C142.129 41 142.232 41.0033 142.365 41.01C142.499 41.0167 142.595 41.0167 142.655 41.01C142.615 41.0367 142.569 41.09 142.515 41.17C142.462 41.25 142.412 41.3333 142.365 41.42C142.319 41.5 142.282 41.5633 142.255 41.61C142.082 41.9567 141.919 42.3 141.765 42.64C141.612 42.98 141.495 43.3067 141.415 43.62C141.402 43.6733 141.392 43.7267 141.385 43.78C141.379 43.8333 141.375 43.8833 141.375 43.93C141.375 44.1233 141.439 44.22 141.565 44.22C141.619 44.22 141.675 44.2067 141.735 44.18C141.802 44.1467 141.879 44.0967 141.965 44.03C142.119 43.91 142.252 43.7733 142.365 43.62C142.499 43.4467 142.625 43.2633 142.745 43.07C142.865 42.87 142.969 42.6867 143.055 42.52C143.089 42.4667 143.112 42.44 143.125 42.44C143.165 42.44 143.185 42.4967 143.185 42.61C143.185 42.6633 143.175 42.7267 143.155 42.8C143.142 42.8667 143.119 42.93 143.085 42.99C142.992 43.15 142.882 43.3267 142.755 43.52C142.629 43.7133 142.499 43.9 142.365 44.08C142.272 44.2067 142.149 44.3467 141.995 44.5C141.842 44.6533 141.679 44.7867 141.505 44.9C141.332 45.0067 141.165 45.06 141.005 45.06ZM145.363 45.06C145.137 45.06 144.98 44.9933 144.893 44.86C144.813 44.72 144.773 44.56 144.773 44.38C144.773 44.16 144.817 43.8967 144.903 43.59C144.99 43.2767 145.09 42.9633 145.203 42.65C145.323 42.33 145.43 42.0467 145.523 41.8C145.55 41.74 145.563 41.6767 145.563 41.61C145.563 41.5367 145.54 41.4833 145.493 41.45C145.447 41.4167 145.387 41.4 145.313 41.4C145.207 41.4 145.087 41.4333 144.953 41.5C144.747 41.6067 144.55 41.7767 144.363 42.01C144.177 42.2433 144.027 42.4867 143.913 42.74C143.787 43.0267 143.673 43.3133 143.573 43.6C143.473 43.8867 143.393 44.12 143.333 44.3C143.293 44.4133 143.257 44.53 143.223 44.65C143.19 44.77 143.157 44.8867 143.123 45H142.153C142.153 45 142.177 44.9167 142.223 44.75C142.263 44.5833 142.317 44.4167 142.383 44.25C142.497 43.9567 142.61 43.6633 142.723 43.37C142.843 43.0767 142.947 42.8167 143.033 42.59C143.06 42.5233 143.1 42.4 143.153 42.22C143.213 42.0333 143.267 41.84 143.313 41.64C143.367 41.44 143.393 41.2767 143.393 41.15C143.393 41.0767 143.383 41.0267 143.363 41C143.423 41 143.49 41 143.563 41C143.643 40.9933 143.717 40.99 143.783 40.99C143.877 40.99 143.963 40.9933 144.043 41C144.13 41.0067 144.187 41.0233 144.213 41.05C144.293 41.11 144.333 41.1967 144.333 41.31C144.333 41.39 144.317 41.47 144.283 41.55C144.257 41.63 144.237 41.6967 144.223 41.75C144.317 41.6633 144.413 41.58 144.513 41.5C144.613 41.42 144.767 41.3167 144.973 41.19C145.093 41.1167 145.243 41.0567 145.423 41.01C145.603 40.9633 145.767 40.94 145.913 40.94C146.293 40.94 146.483 41.1167 146.483 41.47C146.483 41.53 146.477 41.5967 146.463 41.67C146.457 41.7433 146.437 41.8233 146.403 41.91C146.37 42.0167 146.317 42.1633 146.243 42.35C146.17 42.5367 146.093 42.7367 146.013 42.95C145.94 43.1567 145.877 43.3533 145.823 43.54C145.77 43.7267 145.743 43.8767 145.743 43.99C145.743 44.15 145.803 44.23 145.923 44.23C146.03 44.23 146.163 44.1633 146.323 44.03C146.477 43.9033 146.61 43.7667 146.723 43.62C146.863 43.4467 146.99 43.2633 147.103 43.07C147.223 42.87 147.327 42.6867 147.413 42.52C147.447 42.4667 147.47 42.44 147.483 42.44C147.523 42.44 147.543 42.4967 147.543 42.61C147.543 42.6633 147.533 42.7267 147.513 42.8C147.5 42.8667 147.477 42.93 147.443 42.99C147.35 43.15 147.24 43.3267 147.113 43.52C146.987 43.7133 146.857 43.9 146.723 44.08C146.63 44.2067 146.507 44.3467 146.353 44.5C146.2 44.6533 146.037 44.7867 145.863 44.9C145.69 45.0067 145.523 45.06 145.363 45.06ZM147.229 47.35C147.009 47.35 146.805 47.3033 146.619 47.21C146.432 47.1233 146.339 46.96 146.339 46.72C146.339 46.5867 146.379 46.45 146.459 46.31C146.539 46.1767 146.652 46.09 146.799 46.05C146.812 46.0433 146.829 46.04 146.849 46.04C146.869 46.04 146.885 46.04 146.899 46.04C147.079 46.04 147.199 46.11 147.259 46.25C147.245 46.2567 147.225 46.2767 147.199 46.31C147.172 46.35 147.152 46.38 147.139 46.4C147.079 46.52 147.049 46.6267 147.049 46.72C147.049 46.8267 147.082 46.91 147.149 46.97C147.222 47.03 147.315 47.06 147.429 47.06C147.522 47.06 147.622 47.0367 147.729 46.99C147.842 46.95 147.959 46.8833 148.079 46.79C148.292 46.6167 148.465 46.4067 148.599 46.16C148.739 45.92 148.859 45.6833 148.959 45.45C149.132 45.0367 149.295 44.6 149.449 44.14C149.609 43.68 149.765 43.2367 149.919 42.81C149.792 43.0433 149.655 43.2767 149.509 43.51C149.369 43.7433 149.225 43.9467 149.079 44.12C148.865 44.38 148.639 44.5967 148.399 44.77C148.165 44.9433 147.932 45.03 147.699 45.03C147.512 45.03 147.352 44.9633 147.219 44.83C147.085 44.69 147.019 44.45 147.019 44.11C147.019 43.7633 147.079 43.4067 147.199 43.04C147.319 42.6733 147.485 42.3333 147.699 42.02C147.919 41.7 148.175 41.4433 148.469 41.25C148.769 41.0567 149.095 40.96 149.449 40.96C149.562 40.96 149.685 40.9767 149.819 41.01C149.952 41.0433 150.072 41.1033 150.179 41.19C150.292 41.2767 150.369 41.4 150.409 41.56C150.502 41.36 150.615 41.2167 150.749 41.13C150.882 41.0433 151.112 41 151.439 41H151.839C151.712 41.08 151.585 41.23 151.459 41.45C151.332 41.6633 151.212 41.9167 151.099 42.21C151.012 42.4233 150.912 42.6733 150.799 42.96C150.692 43.2467 150.592 43.52 150.499 43.78C150.412 44.02 150.312 44.2867 150.199 44.58C150.092 44.8733 149.969 45.1633 149.829 45.45C149.695 45.7367 149.542 45.99 149.369 46.21C149.102 46.55 148.775 46.8233 148.389 47.03C148.009 47.2433 147.622 47.35 147.229 47.35ZM148.139 44.19C148.159 44.1967 148.189 44.2 148.229 44.2C148.355 44.2 148.492 44.1467 148.639 44.04C148.785 43.9333 148.932 43.7967 149.079 43.63C149.225 43.4567 149.355 43.2833 149.469 43.11C149.749 42.6767 149.959 42.3433 150.099 42.11C150.245 41.8767 150.332 41.73 150.359 41.67C150.365 41.67 150.369 41.6633 150.369 41.65C150.335 41.5367 150.275 41.4567 150.189 41.41C150.109 41.3567 150.015 41.33 149.909 41.33C149.762 41.33 149.605 41.37 149.439 41.45C149.272 41.53 149.132 41.6267 149.019 41.74C148.845 41.9133 148.679 42.1367 148.519 42.41C148.365 42.6833 148.239 42.9533 148.139 43.22C148.039 43.4867 147.989 43.71 147.989 43.89C147.989 44.0567 148.039 44.1567 148.139 44.19ZM152.852 47.48C152.886 47.4333 152.929 47.35 152.982 47.23C153.036 47.1167 153.092 46.9933 153.152 46.86C153.212 46.7267 153.262 46.6133 153.302 46.52C153.416 46.24 153.546 45.8967 153.692 45.49C153.839 45.09 153.989 44.67 154.142 44.23C154.296 43.79 154.442 43.37 154.582 42.97C154.722 42.57 154.846 42.24 154.952 41.98C155.052 41.74 155.139 41.55 155.212 41.41C155.286 41.2633 155.389 41.16 155.522 41.1C155.662 41.0333 155.872 41 156.152 41H156.452C156.359 41.0667 156.236 41.22 156.082 41.46C155.936 41.6933 155.796 41.94 155.662 42.2C155.709 42.14 155.752 42.0833 155.792 42.03C155.832 41.97 155.876 41.9167 155.922 41.87C156.136 41.61 156.362 41.3933 156.602 41.22C156.842 41.0467 157.076 40.96 157.302 40.96C157.489 40.96 157.646 41.03 157.772 41.17C157.906 41.31 157.972 41.5467 157.972 41.88C157.972 42.1867 157.912 42.4967 157.792 42.81C157.679 43.1167 157.526 43.41 157.332 43.69C157.139 43.9633 156.926 44.2067 156.692 44.42C156.646 44.4667 156.592 44.5133 156.532 44.56C156.479 44.6 156.422 44.64 156.362 44.68C156.576 44.7 156.786 44.65 156.992 44.53C157.206 44.41 157.399 44.2633 157.572 44.09C157.752 43.9167 157.899 43.76 158.012 43.62C158.146 43.4467 158.279 43.2467 158.412 43.02C158.552 42.7933 158.666 42.5933 158.752 42.42C158.779 42.3733 158.802 42.35 158.822 42.35C158.876 42.35 158.902 42.41 158.902 42.53C158.902 42.6367 158.869 42.7467 158.802 42.86C158.749 42.96 158.676 43.0867 158.582 43.24C158.489 43.3933 158.406 43.5267 158.332 43.64C158.026 44.0867 157.669 44.4533 157.262 44.74C156.856 45.0267 156.366 45.17 155.792 45.17C155.746 45.17 155.696 45.17 155.642 45.17C155.596 45.17 155.546 45.1667 155.492 45.16C155.332 45.1467 155.182 45.1067 155.042 45.04C154.902 44.98 154.809 44.8633 154.762 44.69L154.202 46.44C154.129 46.6733 154.062 46.8667 154.002 47.02C153.936 47.1733 153.856 47.2867 153.762 47.36C153.662 47.44 153.519 47.48 153.332 47.48H152.852ZM155.262 44.74C155.376 44.74 155.506 44.6833 155.652 44.57C155.799 44.45 155.942 44.3033 156.082 44.13C156.229 43.95 156.352 43.7767 156.452 43.61C156.606 43.3433 156.736 43.07 156.842 42.79C156.949 42.51 157.002 42.28 157.002 42.1C157.002 41.9 156.922 41.8 156.762 41.8C156.622 41.8 156.469 41.8667 156.302 42C156.182 42.0933 156.046 42.23 155.892 42.41C155.746 42.59 155.599 42.7933 155.452 43.02C155.312 43.24 155.196 43.4667 155.102 43.7C155.016 43.9267 154.972 44.1333 154.972 44.32C154.972 44.3533 154.972 44.3867 154.972 44.42C154.979 44.4467 154.986 44.4767 154.992 44.51C155.026 44.6633 155.116 44.74 155.262 44.74ZM161.398 45.06C161.191 45.06 161.048 44.98 160.968 44.82C160.894 44.66 160.858 44.4633 160.858 44.23C160.858 44.0167 160.878 43.8067 160.918 43.6C160.938 43.5067 160.958 43.4133 160.978 43.32C161.004 43.22 161.034 43.1167 161.068 43.01C160.954 43.2167 160.834 43.4167 160.708 43.61C160.588 43.8033 160.464 43.9733 160.338 44.12C160.124 44.38 159.898 44.5967 159.658 44.77C159.424 44.9433 159.191 45.03 158.958 45.03C158.771 45.03 158.611 44.9633 158.478 44.83C158.351 44.69 158.288 44.45 158.288 44.11C158.288 43.7633 158.348 43.4067 158.468 43.04C158.588 42.6733 158.754 42.3333 158.968 42.02C159.188 41.7 159.444 41.4433 159.738 41.25C160.038 41.0567 160.364 40.96 160.718 40.96C160.831 40.96 160.954 40.9767 161.088 41.01C161.221 41.0433 161.344 41.1067 161.458 41.2C161.571 41.2867 161.648 41.41 161.688 41.57C161.694 41.5567 161.701 41.5467 161.708 41.54C161.721 41.5333 161.731 41.5267 161.738 41.52C161.831 41.3733 161.938 41.25 162.058 41.15C162.178 41.05 162.311 41 162.458 41C162.531 41 162.634 41.0033 162.768 41.01C162.901 41.0167 162.998 41.0167 163.058 41.01C163.024 41.0367 162.978 41.09 162.918 41.17C162.864 41.25 162.814 41.3333 162.768 41.42C162.721 41.5 162.684 41.5633 162.658 41.61C162.478 41.9567 162.314 42.3 162.168 42.64C162.021 42.98 161.908 43.3067 161.828 43.62C161.808 43.6867 161.794 43.75 161.788 43.81C161.781 43.8633 161.778 43.9167 161.778 43.97C161.778 44.1433 161.834 44.23 161.948 44.23C162.054 44.23 162.188 44.1633 162.348 44.03C162.581 43.8433 162.784 43.61 162.958 43.33C163.138 43.05 163.294 42.78 163.428 42.52C163.454 42.4733 163.478 42.45 163.498 42.45C163.538 42.45 163.558 42.5067 163.558 42.62C163.558 42.6733 163.548 42.7333 163.528 42.8C163.514 42.8667 163.491 42.93 163.458 42.99C163.364 43.15 163.241 43.3467 163.088 43.58C162.941 43.8133 162.774 44.0433 162.588 44.27C162.401 44.49 162.204 44.6767 161.998 44.83C161.798 44.9833 161.598 45.06 161.398 45.06ZM159.408 44.19C159.428 44.1967 159.458 44.2 159.498 44.2C159.624 44.2 159.761 44.1467 159.908 44.04C160.054 43.9333 160.201 43.7967 160.348 43.63C160.494 43.4567 160.624 43.2833 160.738 43.11C161.031 42.6433 161.248 42.2933 161.388 42.06C161.528 41.8267 161.608 41.6933 161.628 41.66C161.594 41.5467 161.534 41.4633 161.448 41.41C161.368 41.3567 161.271 41.33 161.158 41.33C161.011 41.33 160.854 41.37 160.688 41.45C160.528 41.53 160.391 41.6267 160.278 41.74C160.104 41.9133 159.938 42.1367 159.778 42.41C159.624 42.6833 159.498 42.9533 159.398 43.22C159.304 43.4867 159.258 43.71 159.258 43.89C159.258 44.0567 159.308 44.1567 159.408 44.19ZM164.724 45.07C164.511 45.07 164.358 44.98 164.264 44.8C164.191 44.64 164.154 44.45 164.154 44.23C164.154 43.9833 164.191 43.71 164.264 43.41C164.338 43.11 164.438 42.8033 164.564 42.49C164.611 42.3767 164.671 42.2333 164.744 42.06C164.824 41.8867 164.918 41.7167 165.024 41.55C164.931 41.63 164.821 41.6967 164.694 41.75C164.568 41.7967 164.444 41.82 164.324 41.82C164.231 41.82 164.154 41.8067 164.094 41.78C164.041 41.8867 163.954 42.06 163.834 42.3C163.714 42.54 163.554 42.8233 163.354 43.15C163.334 43.1833 163.314 43.1833 163.294 43.15C163.281 43.11 163.274 43.0567 163.274 42.99C163.274 42.9367 163.281 42.88 163.294 42.82C163.308 42.76 163.328 42.7033 163.354 42.65C163.421 42.5233 163.488 42.3933 163.554 42.26C163.621 42.12 163.681 41.9967 163.734 41.89C163.788 41.7833 163.818 41.7167 163.824 41.69C163.704 41.63 163.614 41.5467 163.554 41.44C163.494 41.3267 163.464 41.2167 163.464 41.11C163.464 41.0033 163.488 40.9067 163.534 40.82C163.588 40.7333 163.664 40.6667 163.764 40.62C163.824 40.6 163.881 40.59 163.934 40.59C164.081 40.59 164.201 40.6367 164.294 40.73C164.288 40.7567 164.281 40.7867 164.274 40.82C164.274 40.8467 164.274 40.8767 164.274 40.91C164.274 41.1167 164.358 41.27 164.524 41.37C164.691 41.47 164.871 41.5067 165.064 41.48C165.158 41.3467 165.264 41.23 165.384 41.13C165.504 41.03 165.634 40.98 165.774 40.98C165.848 40.98 165.951 40.9833 166.084 40.99C166.224 40.9967 166.324 40.9967 166.384 40.99C166.344 41.0167 166.298 41.07 166.244 41.15C166.191 41.23 166.141 41.3133 166.094 41.4C166.048 41.4867 166.011 41.5533 165.984 41.6C165.804 41.9467 165.638 42.2933 165.484 42.64C165.331 42.98 165.214 43.3067 165.134 43.62C165.121 43.68 165.108 43.7367 165.094 43.79C165.088 43.8367 165.084 43.8867 165.084 43.94C165.084 44.14 165.151 44.24 165.284 44.24C165.378 44.24 165.511 44.1733 165.684 44.04C165.838 43.9133 165.974 43.7733 166.094 43.62C166.228 43.4467 166.354 43.26 166.474 43.06C166.594 42.86 166.698 42.6767 166.784 42.51C166.818 42.4567 166.841 42.43 166.854 42.43C166.894 42.43 166.914 42.49 166.914 42.61C166.914 42.6567 166.908 42.7133 166.894 42.78C166.881 42.8467 166.858 42.91 166.824 42.97C166.724 43.1367 166.611 43.32 166.484 43.52C166.358 43.7133 166.228 43.9033 166.094 44.09C166.008 44.21 165.884 44.3467 165.724 44.5C165.571 44.6533 165.404 44.7867 165.224 44.9C165.051 45.0133 164.884 45.07 164.724 45.07ZM167.234 45.06C167.041 45.06 166.894 44.9833 166.794 44.83C166.747 44.7567 166.714 44.67 166.694 44.57C166.674 44.47 166.664 44.3667 166.664 44.26C166.664 44.1533 166.671 44.0467 166.684 43.94C166.697 43.8267 166.714 43.7167 166.734 43.61C166.767 43.4367 166.804 43.28 166.844 43.14C166.891 42.9933 166.937 42.8533 166.984 42.72V42.71C166.931 42.81 166.864 42.92 166.784 43.04C166.704 43.1533 166.647 43.2367 166.614 43.29C166.567 43.3633 166.531 43.4 166.504 43.4C166.477 43.4 166.464 43.37 166.464 43.31C166.464 43.1767 166.504 43.03 166.584 42.87C166.637 42.7633 166.711 42.6267 166.804 42.46C166.897 42.2867 166.994 42.1 167.094 41.9C167.194 41.7 167.281 41.5067 167.354 41.32H166.684C166.651 41.32 166.644 41.2933 166.664 41.24C166.684 41.1867 166.714 41.1367 166.754 41.09C166.794 41.0367 166.824 41.01 166.844 41.01H167.604C167.677 40.8367 167.761 40.65 167.854 40.45C167.954 40.25 168.064 40.0633 168.184 39.89C168.311 39.71 168.447 39.5633 168.594 39.45C168.741 39.3367 168.897 39.28 169.064 39.28C169.137 39.28 169.227 39.28 169.334 39.28C169.447 39.28 169.517 39.2767 169.544 39.27C169.404 39.3633 169.241 39.55 169.054 39.83C168.867 40.1033 168.664 40.4967 168.444 41.01H169.454C169.474 41.01 169.467 41.0367 169.434 41.09C169.401 41.1367 169.357 41.1867 169.304 41.24C169.257 41.2933 169.211 41.32 169.164 41.32H168.304C168.217 41.54 168.121 41.78 168.014 42.04C167.914 42.3 167.821 42.5567 167.734 42.81C167.654 43.0567 167.594 43.2833 167.554 43.49C167.527 43.6167 167.514 43.7333 167.514 43.84C167.514 44.0933 167.594 44.22 167.754 44.22C167.861 44.22 167.987 44.1667 168.134 44.06C168.281 43.9533 168.427 43.8067 168.574 43.62C168.707 43.4467 168.834 43.26 168.954 43.06C169.081 42.86 169.187 42.6767 169.274 42.51C169.301 42.4633 169.324 42.44 169.344 42.44C169.384 42.44 169.404 42.4933 169.404 42.6C169.404 42.6533 169.394 42.7167 169.374 42.79C169.361 42.8567 169.334 42.9233 169.294 42.99C169.201 43.15 169.091 43.3267 168.964 43.52C168.837 43.7067 168.707 43.8933 168.574 44.08C168.481 44.2 168.357 44.3367 168.204 44.49C168.057 44.6433 167.897 44.7767 167.724 44.89C167.557 45.0033 167.394 45.06 167.234 45.06ZM171.574 45.06C171.348 45.06 171.191 44.9933 171.104 44.86C171.024 44.72 170.984 44.56 170.984 44.38C170.984 44.16 171.028 43.8967 171.114 43.59C171.201 43.2767 171.301 42.9633 171.414 42.65C171.534 42.33 171.641 42.0467 171.734 41.8C171.761 41.74 171.774 41.6767 171.774 41.61C171.774 41.5367 171.751 41.4833 171.704 41.45C171.658 41.4167 171.598 41.4 171.524 41.4C171.418 41.4 171.298 41.4333 171.164 41.5C170.958 41.6067 170.761 41.7767 170.574 42.01C170.388 42.2433 170.238 42.4867 170.124 42.74C169.998 43.0267 169.884 43.3133 169.784 43.6C169.684 43.8867 169.604 44.12 169.544 44.3C169.504 44.4133 169.468 44.53 169.434 44.65C169.401 44.77 169.368 44.8867 169.334 45H168.364C168.364 45 168.388 44.9167 168.434 44.75C168.474 44.5833 168.528 44.4167 168.594 44.25C168.708 43.9567 168.821 43.6633 168.934 43.37C169.054 43.0767 169.158 42.8167 169.244 42.59C169.271 42.5233 169.311 42.4 169.364 42.22C169.424 42.0333 169.478 41.84 169.524 41.64C169.578 41.44 169.604 41.2767 169.604 41.15C169.604 41.0767 169.594 41.0267 169.574 41C169.634 41 169.701 41 169.774 41C169.854 40.9933 169.928 40.99 169.994 40.99C170.088 40.99 170.174 40.9933 170.254 41C170.341 41.0067 170.398 41.0233 170.424 41.05C170.504 41.11 170.544 41.1967 170.544 41.31C170.544 41.39 170.528 41.47 170.494 41.55C170.468 41.63 170.448 41.6967 170.434 41.75C170.528 41.6633 170.624 41.58 170.724 41.5C170.824 41.42 170.978 41.3167 171.184 41.19C171.304 41.1167 171.454 41.0567 171.634 41.01C171.814 40.9633 171.978 40.94 172.124 40.94C172.504 40.94 172.694 41.1167 172.694 41.47C172.694 41.53 172.688 41.5967 172.674 41.67C172.668 41.7433 172.648 41.8233 172.614 41.91C172.581 42.0167 172.528 42.1633 172.454 42.35C172.381 42.5367 172.304 42.7367 172.224 42.95C172.151 43.1567 172.088 43.3533 172.034 43.54C171.981 43.7267 171.954 43.8767 171.954 43.99C171.954 44.15 172.014 44.23 172.134 44.23C172.241 44.23 172.374 44.1633 172.534 44.03C172.688 43.9033 172.821 43.7667 172.934 43.62C173.074 43.4467 173.201 43.2633 173.314 43.07C173.434 42.87 173.538 42.6867 173.624 42.52C173.658 42.4667 173.681 42.44 173.694 42.44C173.734 42.44 173.754 42.4967 173.754 42.61C173.754 42.6633 173.744 42.7267 173.724 42.8C173.711 42.8667 173.688 42.93 173.654 42.99C173.561 43.15 173.451 43.3267 173.324 43.52C173.198 43.7133 173.068 43.9 172.934 44.08C172.841 44.2067 172.718 44.3467 172.564 44.5C172.411 44.6533 172.248 44.7867 172.074 44.9C171.901 45.0067 171.734 45.06 171.574 45.06ZM175.6 44.86C175.293 45.02 174.97 45.1 174.63 45.1C174.343 45.1 174.076 45.03 173.83 44.89C173.583 44.75 173.416 44.5267 173.33 44.22C173.29 44.08 173.27 43.9333 173.27 43.78C173.27 43.5267 173.313 43.2667 173.4 43C173.493 42.7267 173.613 42.4767 173.76 42.25C173.986 41.8967 174.273 41.6033 174.62 41.37C174.966 41.1367 175.35 41.02 175.77 41.02C176.083 41.02 176.326 41.1 176.5 41.26C176.673 41.42 176.76 41.6067 176.76 41.82C176.76 42.0733 176.673 42.2967 176.5 42.49C176.333 42.6767 176.113 42.82 175.84 42.92C175.706 42.9667 175.563 43.0033 175.41 43.03C175.263 43.05 175.123 43.06 174.99 43.06C174.716 43.06 174.506 43.0233 174.36 42.95C174.233 43.2767 174.17 43.5767 174.17 43.85C174.17 44.0967 174.226 44.3 174.34 44.46C174.453 44.6133 174.633 44.69 174.88 44.69C175.086 44.69 175.29 44.6333 175.49 44.52C175.696 44.4067 175.886 44.2667 176.06 44.1C176.24 43.9333 176.39 43.7733 176.51 43.62C176.603 43.5067 176.683 43.4 176.75 43.3C176.816 43.2 176.886 43.0867 176.96 42.96C177.033 42.8267 177.12 42.6633 177.22 42.47C177.246 42.4233 177.27 42.4 177.29 42.4C177.33 42.4 177.35 42.4533 177.35 42.56C177.35 42.62 177.34 42.6867 177.32 42.76C177.306 42.8267 177.28 42.8967 177.24 42.97C177.146 43.1367 177.033 43.32 176.9 43.52C176.773 43.7133 176.643 43.9 176.51 44.08C176.39 44.24 176.253 44.3867 176.1 44.52C175.946 44.6533 175.78 44.7667 175.6 44.86ZM174.69 42.73C174.723 42.75 174.76 42.7633 174.8 42.77C174.84 42.7767 174.88 42.78 174.92 42.78C175.053 42.78 175.186 42.75 175.32 42.69C175.453 42.6233 175.566 42.5567 175.66 42.49C175.813 42.3833 175.943 42.2567 176.05 42.11C176.156 41.9633 176.216 41.7967 176.23 41.61C176.236 41.53 176.216 41.4633 176.17 41.41C176.13 41.35 176.056 41.32 175.95 41.32C175.896 41.32 175.83 41.33 175.75 41.35C175.643 41.3767 175.536 41.4267 175.43 41.5C175.323 41.5733 175.22 41.66 175.12 41.76C175.086 41.7933 175.026 41.86 174.94 41.96C174.86 42.0533 174.783 42.16 174.71 42.28C174.636 42.3933 174.6 42.4933 174.6 42.58C174.6 42.6533 174.63 42.7033 174.69 42.73ZM178.504 45.07C178.29 45.07 178.137 44.98 178.044 44.8C177.97 44.64 177.934 44.45 177.934 44.23C177.934 43.9833 177.97 43.71 178.044 43.41C178.117 43.11 178.217 42.8033 178.344 42.49C178.39 42.3767 178.45 42.2333 178.524 42.06C178.604 41.8867 178.697 41.7167 178.804 41.55C178.71 41.63 178.6 41.6967 178.474 41.75C178.347 41.7967 178.224 41.82 178.104 41.82C178.01 41.82 177.934 41.8067 177.874 41.78C177.82 41.8867 177.734 42.06 177.614 42.3C177.494 42.54 177.334 42.8233 177.134 43.15C177.114 43.1833 177.094 43.1833 177.074 43.15C177.06 43.11 177.054 43.0567 177.054 42.99C177.054 42.9367 177.06 42.88 177.074 42.82C177.087 42.76 177.107 42.7033 177.134 42.65C177.2 42.5233 177.267 42.3933 177.334 42.26C177.4 42.12 177.46 41.9967 177.514 41.89C177.567 41.7833 177.597 41.7167 177.604 41.69C177.484 41.63 177.394 41.5467 177.334 41.44C177.274 41.3267 177.244 41.2167 177.244 41.11C177.244 41.0033 177.267 40.9067 177.314 40.82C177.367 40.7333 177.444 40.6667 177.544 40.62C177.604 40.6 177.66 40.59 177.714 40.59C177.86 40.59 177.98 40.6367 178.074 40.73C178.067 40.7567 178.06 40.7867 178.054 40.82C178.054 40.8467 178.054 40.8767 178.054 40.91C178.054 41.1167 178.137 41.27 178.304 41.37C178.47 41.47 178.65 41.5067 178.844 41.48C178.937 41.3467 179.044 41.23 179.164 41.13C179.284 41.03 179.414 40.98 179.554 40.98C179.627 40.98 179.73 40.9833 179.864 40.99C180.004 40.9967 180.104 40.9967 180.164 40.99C180.124 41.0167 180.077 41.07 180.024 41.15C179.97 41.23 179.92 41.3133 179.874 41.4C179.827 41.4867 179.79 41.5533 179.764 41.6C179.584 41.9467 179.417 42.2933 179.264 42.64C179.11 42.98 178.994 43.3067 178.914 43.62C178.9 43.68 178.887 43.7367 178.874 43.79C178.867 43.8367 178.864 43.8867 178.864 43.94C178.864 44.14 178.93 44.24 179.064 44.24C179.157 44.24 179.29 44.1733 179.464 44.04C179.617 43.9133 179.754 43.7733 179.874 43.62C180.007 43.4467 180.134 43.26 180.254 43.06C180.374 42.86 180.477 42.6767 180.564 42.51C180.597 42.4567 180.62 42.43 180.634 42.43C180.674 42.43 180.694 42.49 180.694 42.61C180.694 42.6567 180.687 42.7133 180.674 42.78C180.66 42.8467 180.637 42.91 180.604 42.97C180.504 43.1367 180.39 43.32 180.264 43.52C180.137 43.7133 180.007 43.9033 179.874 44.09C179.787 44.21 179.664 44.3467 179.504 44.5C179.35 44.6533 179.184 44.7867 179.004 44.9C178.83 45.0133 178.664 45.07 178.504 45.07Z" fill="#00D33B"/>
</svg>
